;<svg
  xmlns="http://www.w3.org/2000/svg"
  xmlns:xlink="http://www.w3.org/1999/xlink"
  fill="none"
  version="1.1"
  width="42"
  height="41.999996185302734"
  viewBox="0 0 42 41.999996185302734"
>
  <defs>
    <clipPath id="master_svg0_420_9384">
      <rect x="0" y="0" width="42" height="41.999996185302734" rx="0" />
    </clipPath>
  </defs>
  <g clip-path="url(#master_svg0_420_9384)">
    <g>
      <path
        d="M11.3779296875,33.2529296875L35.8779296875,33.2529296875L35.8779296875,14.0029296875L26.2529296875,14.0029296875L26.2529296875,3.5029296875L11.3779296875,3.5029296875L11.3779296875,33.2529296875Z"
        fill="#1A8BFE"
        fill-opacity="1"
      />
      <path
        d="M12.1279296875,3.5029296875L12.1279296875,33.2529296875L11.3779296875,33.2529296875L11.3779296875,32.5029296875L35.8779296875,32.5029296875L35.8779296875,33.2529296875L35.1279296875,33.2529296875L35.1279296875,14.0029296875L35.8779296875,14.0029296875L35.8779296875,14.7529296875L26.2529296875,14.7529296875Q26.179029687499998,14.7529296875,26.1066296875,14.7385296875Q26.0341296875,14.7241296875,25.9659296875,14.6958296875Q25.8976296875,14.6675296875,25.8362296875,14.6265296875Q25.774829687500002,14.5855296875,25.7226296875,14.5332296875Q25.6703296875,14.4810296875,25.6293296875,14.4196296875Q25.5883296875,14.3582296875,25.5600296875,14.2899296875Q25.5317296875,14.2217296875,25.517329687500002,14.1492296875Q25.5029296875,14.0768296875,25.5029296875,14.0029296875L25.5029296875,3.5029296875L26.2529296875,3.5029296875L26.2529296875,4.2529296875L11.3779296875,4.2529296875L11.3779296875,3.5029296875L12.1279296875,3.5029296875ZM10.6279296875,3.5029296875Q10.6279296875,3.4290611875,10.642340687499999,3.3566116875Q10.6567516875,3.2841626875,10.6850196875,3.2159166875Q10.7132886875,3.1476716875,10.7543276875,3.0862516875Q10.7953666875,3.0248326875,10.8475996875,2.9725996875Q10.8998326875,2.9203666875,10.9612516875,2.8793276875Q11.0226716875,2.8382886875,11.0909166875,2.8100196875Q11.1591626875,2.7817516875,11.2316116875,2.7673406875Q11.3040611875,2.7529296875,11.3779296875,2.7529296875L26.2529296875,2.7529296875Q26.326829687500002,2.7529296875,26.3992296875,2.7673406875Q26.4717296875,2.7817516875,26.5399296875,2.8100196875Q26.6082296875,2.8382886875,26.6696296875,2.8793276875Q26.731029687499998,2.9203666875,26.7832296875,2.9725996875Q26.8355296875,3.0248326875,26.8765296875,3.0862516875Q26.9175296875,3.1476716875,26.9458296875,3.2159166875Q26.9741296875,3.2841626875,26.988529687499998,3.3566116875Q27.0029296875,3.4290611875,27.0029296875,3.5029296875L27.0029296875,14.0029296875L26.2529296875,14.0029296875L26.2529296875,13.2529296875L35.8779296875,13.2529296875Q35.951829687499995,13.2529296875,36.0242296875,13.2673396875Q36.0967296875,13.2817496875,36.1649296875,13.3100196875Q36.233129687499996,13.3382896875,36.2946296875,13.3793296875Q36.3560296875,13.4203696875,36.4082296875,13.4725996875Q36.4605296875,13.5248296875,36.501529687499996,13.5862296875Q36.5425296875,13.6476296875,36.5708296875,13.7159296875Q36.599129687499996,13.7841296875,36.613529687500005,13.8566296875Q36.6279296875,13.9290296875,36.6279296875,14.0029296875L36.6279296875,33.2529296875Q36.6279296875,33.326829687499995,36.613529687500005,33.3992296875Q36.599129687499996,33.4717296875,36.5708296875,33.5399296875Q36.5425296875,33.608129687499996,36.501529687499996,33.6696296875Q36.4605296875,33.7310296875,36.4082296875,33.7832296875Q36.3560296875,33.835429687499996,36.2946296875,33.876529687499996Q36.233129687499996,33.9175296875,36.1649296875,33.9458296875Q36.0967296875,33.974129687499996,36.0242296875,33.988529687500005Q35.951829687499995,34.0029296875,35.8779296875,34.0029296875L11.3779296875,34.0029296875Q11.3040611875,34.0029296875,11.2316116875,33.988529687500005Q11.1591626875,33.974129687499996,11.0909166875,33.9458296875Q11.0226716875,33.9175296875,10.9612516875,33.876529687499996Q10.8998326875,33.835429687499996,10.8475996875,33.7832296875Q10.7953666875,33.7310296875,10.7543276875,33.6696296875Q10.7132886875,33.608129687499996,10.6850196875,33.5399296875Q10.6567516875,33.4717296875,10.642340687499999,33.3992296875Q10.6279296875,33.326829687499995,10.6279296875,33.2529296875L10.6279296875,3.5029296875Z"
        fill="#1A8BFE"
        fill-opacity="1"
      />
    </g>
    <g>
      <path
        d="M35.32213,14.5097296875L25.697134,4.0097226875Q25.64722,3.9552706875,25.608887,3.8921266875000002Q25.570554,3.8289826875,25.545277,3.7595736875Q25.52,3.6901636875,25.50875,3.6171576874999998Q25.497499,3.5441505875,25.500708,3.4703517875Q25.503917,3.3965526875,25.521461,3.3247976875Q25.539005,3.2530436875,25.570211,3.1860896875Q25.601417,3.1191366875,25.645086,3.0595576875Q25.688754,2.9999786875,25.743206999999998,2.9500636875Q25.797659,2.9001496875,25.860803,2.8618166875Q25.923947,2.8234836875,25.993356,2.7982066875Q26.062766,2.7729296875,26.135772,2.7616796875Q26.2087791,2.7504286875,26.2825779,2.7536376875Q26.356377,2.7568466875,26.428132,2.7743906875Q26.499886,2.7919346875,26.56684,2.8231406875Q26.633793,2.8543466875,26.693372,2.8980156875Q26.752951,2.9416836875,26.802866,2.9961366875L36.4279,13.4961396875Q36.4778,13.5506296875,36.5161,13.6137296875Q36.5544,13.6768296875,36.5797,13.7463296875Q36.605000000000004,13.8157296875,36.6162,13.8887296875Q36.6275,13.9617296875,36.6243,14.0355296875Q36.6211,14.1093296875,36.6035,14.1810296875Q36.586,14.2528296875,36.5548,14.3197296875Q36.5236,14.3867296875,36.4799,14.4463296875Q36.4362,14.5058296875,36.3818,14.5558296875Q36.3273,14.6057296875,36.2642,14.6440296875Q36.20105,14.6823296875,36.131640000000004,14.7076296875Q36.06223,14.7329296875,35.98922,14.7441296875Q35.916219999999996,14.7554296875,35.842420000000004,14.7522296875Q35.76862,14.7490296875,35.696870000000004,14.7314296875Q35.62511,14.7139296875,35.55816,14.6827296875Q35.4912,14.6515296875,35.43163,14.6078296875Q35.37205,14.5641296875,35.32213,14.5097296875ZM36.625,14.0029296875Q36.625,14.0768296875,36.6106,14.1492296875Q36.596199999999996,14.2217296875,36.5679,14.2899296875Q36.5396,14.3582296875,36.498599999999996,14.4196296875Q36.4576,14.4810296875,36.4053,14.5332296875Q36.3531,14.5855296875,36.2917,14.6265296875Q36.23026,14.6675296875,36.16201,14.6958296875Q36.09376,14.7241296875,36.02132,14.7385296875Q35.94887,14.7529296875,35.875,14.7529296875Q35.80113,14.7529296875,35.72868,14.7385296875Q35.65623,14.7241296875,35.58799,14.6958296875Q35.51974,14.6675296875,35.45832,14.6265296875Q35.3969,14.5855296875,35.34467,14.5332296875Q35.292429999999996,14.4810296875,35.251400000000004,14.4196296875Q35.21036,14.3582296875,35.18209,14.2899296875Q35.153819999999996,14.2217296875,35.13941,14.1492296875Q35.125,14.0768296875,35.125,14.0029296875Q35.125,13.9290296875,35.13941,13.8566296875Q35.153819999999996,13.7841296875,35.18209,13.7159296875Q35.21036,13.6476296875,35.251400000000004,13.5862296875Q35.292429999999996,13.5248296875,35.34467,13.4725996875Q35.3969,13.4203696875,35.45832,13.3793296875Q35.51974,13.3382896875,35.58799,13.3100196875Q35.65623,13.2817496875,35.72868,13.2673396875Q35.80113,13.2529296875,35.875,13.2529296875Q35.94887,13.2529296875,36.02132,13.2673396875Q36.09376,13.2817496875,36.16201,13.3100196875Q36.23026,13.3382896875,36.2917,13.3793296875Q36.3531,13.4203696875,36.4053,13.4725996875Q36.4576,13.5248296875,36.498599999999996,13.5862296875Q36.5396,13.6476296875,36.5679,13.7159296875Q36.596199999999996,13.7841296875,36.6106,13.8566296875Q36.625,13.9290296875,36.625,14.0029296875ZM27,3.5029296875Q27,3.5767981875,26.985589,3.6492476875Q26.971178,3.7216966875,26.94291,3.7899426875Q26.914641,3.8581876875,26.873601999999998,3.9196076875Q26.832563,3.9810266875,26.78033,4.0332596875Q26.728096999999998,4.0854926875,26.666678,4.1265316875Q26.605258,4.1675706875,26.537013,4.1958396875Q26.468767,4.2241076875,26.396318,4.2385186875Q26.3238685,4.2529296875,26.25,4.2529296875Q26.1761315,4.2529296875,26.103682,4.2385186875Q26.031233,4.2241076875,25.962987,4.1958396875Q25.894742,4.1675706875,25.833322,4.1265316875Q25.771903000000002,4.0854926875,25.71967,4.0332596875Q25.667437,3.9810266875,25.626398000000002,3.9196076875Q25.585359,3.8581876875,25.55709,3.7899426875Q25.528822,3.7216966875,25.514411,3.6492476875Q25.5,3.5767981875,25.5,3.5029296875Q25.5,3.4290611875,25.514411,3.3566116875Q25.528822,3.2841626875,25.55709,3.2159166875Q25.585359,3.1476716875,25.626398000000002,3.0862516875Q25.667437,3.0248326875,25.71967,2.9725996875Q25.771903000000002,2.9203666875,25.833322,2.8793276875Q25.894742,2.8382886875,25.962987,2.8100196875Q26.031233,2.7817516875,26.103682,2.7673406875Q26.1761315,2.7529296875,26.25,2.7529296875Q26.3238685,2.7529296875,26.396318,2.7673406875Q26.468767,2.7817516875,26.537013,2.8100196875Q26.605258,2.8382886875,26.666678,2.8793276875Q26.728096999999998,2.9203666875,26.78033,2.9725996875Q26.832563,3.0248326875,26.873601999999998,3.0862516875Q26.914641,3.1476716875,26.94291,3.2159166875Q26.971178,3.2841626875,26.985589,3.3566116875Q27,3.4290611875,27,3.5029296875Z"
        fill="#1A8BFE"
        fill-opacity="1"
      />
    </g>
    <g>
      <path
        d="M24.5029296875,39.2470703125L6.1279296875,39.2470703125Q6.0540611875,39.2470703125,5.9816116875,39.232670312500005Q5.9091626875,39.218270312499996,5.8409166875,39.1899703125Q5.7726716875,39.1616703125,5.7112516875,39.120670312499996Q5.6498326875,39.0796703125,5.5975996875,39.0273703125Q5.5453666875,38.9751703125,5.5043276875,38.9137703125Q5.4632886875,38.8523703125,5.4350196875,38.7840703125Q5.4067516875,38.7158703125,5.3923406875,38.6433703125Q5.3779296875,38.570970312499995,5.3779296875,38.4970703125L5.3779296875,17.4970703125Q5.3779296875,17.4232018125,5.3923406875,17.3507523125Q5.4067516875,17.2783033125,5.4350196875,17.2100573125Q5.4632886875,17.1418123125,5.5043276875,17.0803923125Q5.5453666875,17.018973312500002,5.5975996875,16.9667403125Q5.6498326875,16.9145073125,5.7112516875,16.873468312500002Q5.7726716875,16.8324293125,5.8409166875,16.8041603125Q5.9091626875,16.7758923125,5.9816116875,16.7614813125Q6.0540611875,16.7470703125,6.1279296875,16.7470703125Q6.2017981875,16.7470703125,6.2742476875,16.7614813125Q6.3466966875,16.7758923125,6.4149426875,16.8041603125Q6.4831876875,16.8324293125,6.5446076875,16.873468312500002Q6.6060266875,16.9145073125,6.6582596875,16.9667403125Q6.7104926875,17.018973312500002,6.7515316875,17.0803923125Q6.7925706875,17.1418123125,6.8208396875,17.2100573125Q6.8491076875,17.2783033125,6.8635186875,17.3507523125Q6.8779296875,17.4232018125,6.8779296875,17.4970703125L6.8779296875,38.4970703125L6.1279296875,38.4970703125L6.1279296875,37.7470703125L24.5029296875,37.7470703125Q24.5768296875,37.7470703125,24.6492296875,37.761470312499995Q24.7217296875,37.775870312500004,24.7899296875,37.8041703125Q24.8582296875,37.8324703125,24.9196296875,37.873470312500004Q24.9810296875,37.9144703125,25.0332296875,37.9667703125Q25.0855296875,38.0189703125,25.1265296875,38.0803703125Q25.1675296875,38.1417703125,25.1958296875,38.2100703125Q25.2241296875,38.2782703125,25.2385296875,38.3507703125Q25.2529296875,38.423170312500005,25.2529296875,38.4970703125Q25.2529296875,38.570970312499995,25.2385296875,38.6433703125Q25.2241296875,38.7158703125,25.1958296875,38.7840703125Q25.1675296875,38.8523703125,25.1265296875,38.9137703125Q25.0855296875,38.9751703125,25.0332296875,39.0273703125Q24.9810296875,39.0796703125,24.9196296875,39.120670312499996Q24.8582296875,39.1616703125,24.7899296875,39.1899703125Q24.7217296875,39.218270312499996,24.6492296875,39.232670312500005Q24.5768296875,39.2470703125,24.5029296875,39.2470703125ZM25.2529296875,38.4970703125Q25.2529296875,38.570970312499995,25.2385296875,38.6433703125Q25.2241296875,38.7158703125,25.1958296875,38.7840703125Q25.1675296875,38.8523703125,25.1265296875,38.9137703125Q25.0855296875,38.9751703125,25.0332296875,39.0273703125Q24.9810296875,39.0796703125,24.9196296875,39.120670312499996Q24.8582296875,39.1616703125,24.7899296875,39.1899703125Q24.7217296875,39.218270312499996,24.6492296875,39.232670312500005Q24.5768296875,39.2470703125,24.5029296875,39.2470703125Q24.4290296875,39.2470703125,24.3566296875,39.232670312500005Q24.2841296875,39.218270312499996,24.2159296875,39.1899703125Q24.1476296875,39.1616703125,24.0862296875,39.120670312499996Q24.0248296875,39.0796703125,23.9726296875,39.0273703125Q23.9203296875,38.9751703125,23.8793296875,38.9137703125Q23.8383296875,38.8523703125,23.8100296875,38.7840703125Q23.7817296875,38.7158703125,23.7673296875,38.6433703125Q23.7529296875,38.570970312499995,23.7529296875,38.4970703125Q23.7529296875,38.423170312500005,23.7673296875,38.3507703125Q23.7817296875,38.2782703125,23.8100296875,38.2100703125Q23.8383296875,38.1417703125,23.8793296875,38.0803703125Q23.9203296875,38.0189703125,23.9726296875,37.9667703125Q24.0248296875,37.9144703125,24.0862296875,37.873470312500004Q24.1476296875,37.8324703125,24.2159296875,37.8041703125Q24.2841296875,37.775870312500004,24.3566296875,37.761470312499995Q24.4290296875,37.7470703125,24.5029296875,37.7470703125Q24.5768296875,37.7470703125,24.6492296875,37.761470312499995Q24.7217296875,37.775870312500004,24.7899296875,37.8041703125Q24.8582296875,37.8324703125,24.9196296875,37.873470312500004Q24.9810296875,37.9144703125,25.0332296875,37.9667703125Q25.0855296875,38.0189703125,25.1265296875,38.0803703125Q25.1675296875,38.1417703125,25.1958296875,38.2100703125Q25.2241296875,38.2782703125,25.2385296875,38.3507703125Q25.2529296875,38.423170312500005,25.2529296875,38.4970703125ZM6.8779296875,17.4970703125Q6.8779296875,17.5709388125,6.8635186875,17.6433883125Q6.8491076875,17.7158373125,6.8208396875,17.7840833125Q6.7925706875,17.8523283125,6.7515316875,17.9137483125Q6.7104926875,17.975167312499998,6.6582596875,18.0274003125Q6.6060266875,18.0796333125,6.5446076875,18.120672312499998Q6.4831876875,18.1617113125,6.4149426875,18.1899803125Q6.3466966875,18.2182483125,6.2742476875,18.2326593125Q6.2017981875,18.2470703125,6.1279296875,18.2470703125Q6.0540611875,18.2470703125,5.9816116875,18.2326593125Q5.9091626875,18.2182483125,5.8409166875,18.1899803125Q5.7726716875,18.1617113125,5.7112516875,18.120672312499998Q5.6498326875,18.0796333125,5.5975996875,18.0274003125Q5.5453666875,17.975167312499998,5.5043276875,17.9137483125Q5.4632886875,17.8523283125,5.4350196875,17.7840833125Q5.4067516875,17.7158373125,5.3923406875,17.6433883125Q5.3779296875,17.5709388125,5.3779296875,17.4970703125Q5.3779296875,17.4232018125,5.3923406875,17.3507523125Q5.4067516875,17.2783033125,5.4350196875,17.2100573125Q5.4632886875,17.1418123125,5.5043276875,17.0803923125Q5.5453666875,17.018973312500002,5.5975996875,16.9667403125Q5.6498326875,16.9145073125,5.7112516875,16.873468312500002Q5.7726716875,16.8324293125,5.8409166875,16.8041603125Q5.9091626875,16.7758923125,5.9816116875,16.7614813125Q6.0540611875,16.7470703125,6.1279296875,16.7470703125Q6.2017981875,16.7470703125,6.2742476875,16.7614813125Q6.3466966875,16.7758923125,6.4149426875,16.8041603125Q6.4831876875,16.8324293125,6.5446076875,16.873468312500002Q6.6060266875,16.9145073125,6.6582596875,16.9667403125Q6.7104926875,17.018973312500002,6.7515316875,17.0803923125Q6.7925706875,17.1418123125,6.8208396875,17.2100573125Q6.8491076875,17.2783033125,6.8635186875,17.3507523125Q6.8779296875,17.4232018125,6.8779296875,17.4970703125Z"
        fill="#1A8BFE"
        fill-opacity="1"
      />
    </g>
    <g>
      <path
        d="M20.1279296875,18.2470703125L16.6279296875,18.2470703125Q16.5540611875,18.2470703125,16.4816116875,18.2326593125Q16.4091626875,18.2182483125,16.3409166875,18.1899803125Q16.2726716875,18.1617113125,16.2112516875,18.120672312499998Q16.149832687500002,18.0796333125,16.0975996875,18.0274003125Q16.0453666875,17.975167312499998,16.004327687500002,17.9137483125Q15.9632886875,17.8523283125,15.9350196875,17.7840833125Q15.9067516875,17.7158373125,15.892340687499999,17.6433883125Q15.8779296875,17.5709388125,15.8779296875,17.4970703125Q15.8779296875,17.4232018125,15.892340687499999,17.3507523125Q15.9067516875,17.2783033125,15.9350196875,17.2100573125Q15.9632886875,17.1418123125,16.004327687500002,17.0803923125Q16.0453666875,17.018973312500002,16.0975996875,16.9667403125Q16.149832687500002,16.9145073125,16.2112516875,16.873468312500002Q16.2726716875,16.8324293125,16.3409166875,16.8041603125Q16.4091626875,16.7758923125,16.4816116875,16.7614813125Q16.5540611875,16.7470703125,16.6279296875,16.7470703125L20.1279296875,16.7470703125Q20.2017996875,16.7470703125,20.2742496875,16.7614813125Q20.3466996875,16.7758923125,20.4149396875,16.8041603125Q20.4831896875,16.8324293125,20.5446096875,16.873468312500002Q20.6060296875,16.9145073125,20.6582596875,16.9667403125Q20.7104896875,17.018973312500002,20.7515296875,17.0803923125Q20.7925696875,17.1418123125,20.8208396875,17.2100573125Q20.8491096875,17.2783033125,20.863519687500002,17.3507523125Q20.8779296875,17.4232018125,20.8779296875,17.4970703125Q20.8779296875,17.5709388125,20.863519687500002,17.6433883125Q20.8491096875,17.7158373125,20.8208396875,17.7840833125Q20.7925696875,17.8523283125,20.7515296875,17.9137483125Q20.7104896875,17.975167312499998,20.6582596875,18.0274003125Q20.6060296875,18.0796333125,20.5446096875,18.120672312499998Q20.4831896875,18.1617113125,20.4149396875,18.1899803125Q20.3466996875,18.2182483125,20.2742496875,18.2326593125Q20.2017996875,18.2470703125,20.1279296875,18.2470703125ZM20.8779296875,17.4970703125Q20.8779296875,17.5709388125,20.863519687500002,17.6433883125Q20.8491096875,17.7158373125,20.8208396875,17.7840833125Q20.7925696875,17.8523283125,20.7515296875,17.9137483125Q20.7104896875,17.975167312499998,20.6582596875,18.0274003125Q20.6060296875,18.0796333125,20.5446096875,18.120672312499998Q20.4831896875,18.1617113125,20.4149396875,18.1899803125Q20.3466996875,18.2182483125,20.2742496875,18.2326593125Q20.2017996875,18.2470703125,20.1279296875,18.2470703125Q20.0540596875,18.2470703125,19.9816096875,18.2326593125Q19.9091596875,18.2182483125,19.8409196875,18.1899803125Q19.7726696875,18.1617113125,19.7112496875,18.120672312499998Q19.6498296875,18.0796333125,19.5975996875,18.0274003125Q19.5453696875,17.975167312499998,19.5043296875,17.9137483125Q19.4632896875,17.8523283125,19.4350196875,17.7840833125Q19.4067496875,17.7158373125,19.392339687499998,17.6433883125Q19.3779296875,17.5709388125,19.3779296875,17.4970703125Q19.3779296875,17.4232018125,19.392339687499998,17.3507523125Q19.4067496875,17.2783033125,19.4350196875,17.2100573125Q19.4632896875,17.1418123125,19.5043296875,17.0803923125Q19.5453696875,17.018973312500002,19.5975996875,16.9667403125Q19.6498296875,16.9145073125,19.7112496875,16.873468312500002Q19.7726696875,16.8324293125,19.8409196875,16.8041603125Q19.9091596875,16.7758923125,19.9816096875,16.7614813125Q20.0540596875,16.7470703125,20.1279296875,16.7470703125Q20.2017996875,16.7470703125,20.2742496875,16.7614813125Q20.3466996875,16.7758923125,20.4149396875,16.8041603125Q20.4831896875,16.8324293125,20.5446096875,16.873468312500002Q20.6060296875,16.9145073125,20.6582596875,16.9667403125Q20.7104896875,17.018973312500002,20.7515296875,17.0803923125Q20.7925696875,17.1418123125,20.8208396875,17.2100573125Q20.8491096875,17.2783033125,20.863519687500002,17.3507523125Q20.8779296875,17.4232018125,20.8779296875,17.4970703125ZM17.3779296875,17.4970703125Q17.3779296875,17.5709388125,17.3635186875,17.6433883125Q17.3491076875,17.7158373125,17.3208396875,17.7840833125Q17.2925706875,17.8523283125,17.251531687499998,17.9137483125Q17.2104926875,17.975167312499998,17.1582596875,18.0274003125Q17.106026687499998,18.0796333125,17.0446076875,18.120672312499998Q16.9831876875,18.1617113125,16.9149426875,18.1899803125Q16.8466966875,18.2182483125,16.7742476875,18.2326593125Q16.7017981875,18.2470703125,16.6279296875,18.2470703125Q16.5540611875,18.2470703125,16.4816116875,18.2326593125Q16.4091626875,18.2182483125,16.3409166875,18.1899803125Q16.2726716875,18.1617113125,16.2112516875,18.120672312499998Q16.149832687500002,18.0796333125,16.0975996875,18.0274003125Q16.0453666875,17.975167312499998,16.004327687500002,17.9137483125Q15.9632886875,17.8523283125,15.9350196875,17.7840833125Q15.9067516875,17.7158373125,15.892340687499999,17.6433883125Q15.8779296875,17.5709388125,15.8779296875,17.4970703125Q15.8779296875,17.4232018125,15.892340687499999,17.3507523125Q15.9067516875,17.2783033125,15.9350196875,17.2100573125Q15.9632886875,17.1418123125,16.004327687500002,17.0803923125Q16.0453666875,17.018973312500002,16.0975996875,16.9667403125Q16.149832687500002,16.9145073125,16.2112516875,16.873468312500002Q16.2726716875,16.8324293125,16.3409166875,16.8041603125Q16.4091626875,16.7758923125,16.4816116875,16.7614813125Q16.5540611875,16.7470703125,16.6279296875,16.7470703125Q16.7017981875,16.7470703125,16.7742476875,16.7614813125Q16.8466966875,16.7758923125,16.9149426875,16.8041603125Q16.9831876875,16.8324293125,17.0446076875,16.873468312500002Q17.106026687499998,16.9145073125,17.1582596875,16.9667403125Q17.2104926875,17.018973312500002,17.251531687499998,17.0803923125Q17.2925706875,17.1418123125,17.3208396875,17.2100573125Q17.3491076875,17.2783033125,17.3635186875,17.3507523125Q17.3779296875,17.4232018125,17.3779296875,17.4970703125Z"
        fill="#FFFFFF"
        fill-opacity="1"
      />
    </g>
    <g>
      <path
        d="M27.1279296875,25.2529296875L16.6279296875,25.2529296875Q16.5540611875,25.2529296875,16.4816116875,25.2385186875Q16.4091626875,25.2241076875,16.3409166875,25.1958396875Q16.2726716875,25.1675706875,16.2112516875,25.126531687499998Q16.149832687500002,25.0854926875,16.0975996875,25.0332596875Q16.0453666875,24.981026687499998,16.004327687500002,24.9196076875Q15.9632886875,24.8581876875,15.9350196875,24.7899426875Q15.9067516875,24.7216966875,15.892340687499999,24.6492476875Q15.8779296875,24.5767981875,15.8779296875,24.5029296875Q15.8779296875,24.4290611875,15.892340687499999,24.3566116875Q15.9067516875,24.2841626875,15.9350196875,24.2159166875Q15.9632886875,24.1476716875,16.004327687500002,24.0862516875Q16.0453666875,24.024832687500002,16.0975996875,23.9725996875Q16.149832687500002,23.9203666875,16.2112516875,23.879327687500002Q16.2726716875,23.8382886875,16.3409166875,23.8100196875Q16.4091626875,23.7817516875,16.4816116875,23.7673406875Q16.5540611875,23.7529296875,16.6279296875,23.7529296875L27.1279296875,23.7529296875Q27.201829687500002,23.7529296875,27.2742296875,23.7673406875Q27.3467296875,23.7817516875,27.4149296875,23.8100196875Q27.4832296875,23.8382886875,27.5446296875,23.879327687500002Q27.606029687499998,23.9203666875,27.6582296875,23.9725996875Q27.7105296875,24.024832687500002,27.7515296875,24.0862516875Q27.7925296875,24.1476716875,27.8208296875,24.2159166875Q27.8491296875,24.2841626875,27.863529687499998,24.3566116875Q27.8779296875,24.4290611875,27.8779296875,24.5029296875Q27.8779296875,24.5767981875,27.863529687499998,24.6492476875Q27.8491296875,24.7216966875,27.8208296875,24.7899426875Q27.7925296875,24.8581876875,27.7515296875,24.9196076875Q27.7105296875,24.981026687499998,27.6582296875,25.0332596875Q27.606029687499998,25.0854926875,27.5446296875,25.126531687499998Q27.4832296875,25.1675706875,27.4149296875,25.1958396875Q27.3467296875,25.2241076875,27.2742296875,25.2385186875Q27.201829687500002,25.2529296875,27.1279296875,25.2529296875ZM27.8779296875,24.5029296875Q27.8779296875,24.5767981875,27.863529687499998,24.6492476875Q27.8491296875,24.7216966875,27.8208296875,24.7899426875Q27.7925296875,24.8581876875,27.7515296875,24.9196076875Q27.7105296875,24.981026687499998,27.6582296875,25.0332596875Q27.606029687499998,25.0854926875,27.5446296875,25.126531687499998Q27.4832296875,25.1675706875,27.4149296875,25.1958396875Q27.3467296875,25.2241076875,27.2742296875,25.2385186875Q27.201829687500002,25.2529296875,27.1279296875,25.2529296875Q27.054029687499998,25.2529296875,26.9816296875,25.2385186875Q26.9091296875,25.2241076875,26.8409296875,25.1958396875Q26.7726296875,25.1675706875,26.7112296875,25.126531687499998Q26.649829687500002,25.0854926875,26.5975996875,25.0332596875Q26.5453696875,24.981026687499998,26.5043296875,24.9196076875Q26.4632896875,24.8581876875,26.435019687500002,24.7899426875Q26.4067496875,24.7216966875,26.392339687499998,24.6492476875Q26.3779296875,24.5767981875,26.3779296875,24.5029296875Q26.3779296875,24.4290611875,26.392339687499998,24.3566116875Q26.4067496875,24.2841626875,26.435019687500002,24.2159166875Q26.4632896875,24.1476716875,26.5043296875,24.0862516875Q26.5453696875,24.024832687500002,26.5975996875,23.9725996875Q26.649829687500002,23.9203666875,26.7112296875,23.879327687500002Q26.7726296875,23.8382886875,26.8409296875,23.8100196875Q26.9091296875,23.7817516875,26.9816296875,23.7673406875Q27.054029687499998,23.7529296875,27.1279296875,23.7529296875Q27.201829687500002,23.7529296875,27.2742296875,23.7673406875Q27.3467296875,23.7817516875,27.4149296875,23.8100196875Q27.4832296875,23.8382886875,27.5446296875,23.879327687500002Q27.606029687499998,23.9203666875,27.6582296875,23.9725996875Q27.7105296875,24.024832687500002,27.7515296875,24.0862516875Q27.7925296875,24.1476716875,27.8208296875,24.2159166875Q27.8491296875,24.2841626875,27.863529687499998,24.3566116875Q27.8779296875,24.4290611875,27.8779296875,24.5029296875ZM17.3779296875,24.5029296875Q17.3779296875,24.5767981875,17.3635186875,24.6492476875Q17.3491076875,24.7216966875,17.3208396875,24.7899426875Q17.2925706875,24.8581876875,17.251531687499998,24.9196076875Q17.2104926875,24.981026687499998,17.1582596875,25.0332596875Q17.106026687499998,25.0854926875,17.0446076875,25.126531687499998Q16.9831876875,25.1675706875,16.9149426875,25.1958396875Q16.8466966875,25.2241076875,16.7742476875,25.2385186875Q16.7017981875,25.2529296875,16.6279296875,25.2529296875Q16.5540611875,25.2529296875,16.4816116875,25.2385186875Q16.4091626875,25.2241076875,16.3409166875,25.1958396875Q16.2726716875,25.1675706875,16.2112516875,25.126531687499998Q16.149832687500002,25.0854926875,16.0975996875,25.0332596875Q16.0453666875,24.981026687499998,16.004327687500002,24.9196076875Q15.9632886875,24.8581876875,15.9350196875,24.7899426875Q15.9067516875,24.7216966875,15.892340687499999,24.6492476875Q15.8779296875,24.5767981875,15.8779296875,24.5029296875Q15.8779296875,24.4290611875,15.892340687499999,24.3566116875Q15.9067516875,24.2841626875,15.9350196875,24.2159166875Q15.9632886875,24.1476716875,16.004327687500002,24.0862516875Q16.0453666875,24.024832687500002,16.0975996875,23.9725996875Q16.149832687500002,23.9203666875,16.2112516875,23.879327687500002Q16.2726716875,23.8382886875,16.3409166875,23.8100196875Q16.4091626875,23.7817516875,16.4816116875,23.7673406875Q16.5540611875,23.7529296875,16.6279296875,23.7529296875Q16.7017981875,23.7529296875,16.7742476875,23.7673406875Q16.8466966875,23.7817516875,16.9149426875,23.8100196875Q16.9831876875,23.8382886875,17.0446076875,23.879327687500002Q17.106026687499998,23.9203666875,17.1582596875,23.9725996875Q17.2104926875,24.024832687500002,17.251531687499998,24.0862516875Q17.2925706875,24.1476716875,17.3208396875,24.2159166875Q17.3491076875,24.2841626875,17.3635186875,24.3566116875Q17.3779296875,24.4290611875,17.3779296875,24.5029296875Z"
        fill="#FFFFFF"
        fill-opacity="1"
      />
    </g>
  </g>
</svg>
