<svg xmlns="http://www.w3.org/2000/svg" xmlns:xlink="http://www.w3.org/1999/xlink" fill="none" version="1.1" width="24" height="24" viewBox="0 0 24 24"><defs><clipPath id="master_svg0_89_24213"><rect x="0" y="0" width="24" height="24" rx="0"/></clipPath></defs><g clip-path="url(#master_svg0_89_24213)"><g><path d="M21,18.5L21,3.5L22,3.5L22,4.5L2,4.5L2,3.5L3,3.5L3,18.5L2,18.5L2,17.5L5.5,17.5Q5.59849,17.5,5.69509,17.519199999999998Q5.79169,17.5384,5.882680000000001,17.5761Q5.97368,17.613799999999998,6.05557,17.6685Q6.13746,17.7232,6.20711,17.7929Q6.27675,17.8625,6.33147,17.9444Q6.38619,18.0263,6.42388,18.1173Q6.46157,18.2083,6.48078,18.3049Q6.5,18.4015,6.5,18.5L6.5,21L5.5,21L5.05279,20.1056L10.05279,17.605600000000003Q10.26393,17.5,10.5,17.5L22,17.5L22,18.5L21,18.5ZM23,18.5Q23,18.5985,22.9808,18.6951Q22.9616,18.7917,22.9239,18.8827Q22.8862,18.9737,22.8315,19.0556Q22.7767,19.1375,22.7071,19.2071Q22.6375,19.276699999999998,22.5556,19.3315Q22.4737,19.386200000000002,22.3827,19.4239Q22.2917,19.4616,22.1951,19.480800000000002Q22.0985,19.5,22,19.5L10.5,19.5L10.5,18.5L10.94721,19.394399999999997L5.94721,21.8944Q5.73607,22,5.5,22Q5.40151,22,5.30491,21.9808Q5.20831,21.9616,5.117319999999999,21.9239Q5.02632,21.8862,4.9444300000000005,21.8315Q4.86254,21.7767,4.79289,21.7071Q4.72325,21.6375,4.6685300000000005,21.5556Q4.61381,21.4737,4.5761199999999995,21.3827Q4.53843,21.2917,4.51921,21.1951Q4.5,21.0985,4.5,21L4.5,18.5L5.5,18.5L5.5,19.5L2,19.5Q1.9015086,19.5,1.80491,19.480800000000002Q1.7083110000000001,19.4616,1.617317,19.4239Q1.526322,19.386200000000002,1.44443,19.3315Q1.362537,19.276699999999998,1.2928929999999998,19.2071Q1.223249,19.1375,1.16853,19.0556Q1.113812,18.9737,1.076121,18.8827Q1.03843,18.7917,1.019215,18.6951Q1,18.5985,1,18.5L1,3.5Q1,3.4015086,1.019215,3.30491Q1.03843,3.208311,1.076121,3.117317Q1.113812,3.026322,1.16853,2.94443Q1.223249,2.862537,1.2928929999999998,2.792893Q1.362537,2.723249,1.44443,2.66853Q1.526322,2.6138120000000002,1.617317,2.576121Q1.7083110000000001,2.53843,1.80491,2.519215Q1.9015086,2.5,2,2.5L22,2.5Q22.0985,2.5,22.1951,2.519215Q22.2917,2.53843,22.3827,2.576121Q22.4737,2.6138120000000002,22.5556,2.66853Q22.6375,2.723249,22.7071,2.792893Q22.7767,2.862537,22.8315,2.94443Q22.8862,3.026322,22.9239,3.117317Q22.9616,3.208311,22.9808,3.30491Q23,3.4015086,23,3.5L23,18.5Z" fill="#1A8BFE" fill-opacity="1"/></g><g><path d="M14.5,8.5L14.5,8Q14.5,7.9015086,14.519214999999999,7.80491Q14.53843,7.708311,14.576121,7.617317Q14.613812,7.526322,14.66853,7.44443Q14.723249,7.362537,14.792893,7.292893Q14.862537,7.223249,14.94443,7.16853Q15.026322,7.113812,15.117317,7.076121Q15.208311,7.03843,15.30491,7.019215Q15.4015086,7,15.5,7Q15.5984914,7,15.69509,7.019215Q15.791689,7.03843,15.882683,7.076121Q15.973678,7.113812,16.05557,7.16853Q16.137463,7.223249,16.207107,7.292893Q16.276751,7.362537,16.33147,7.44443Q16.386188,7.526322,16.423879,7.617317Q16.461570000000002,7.708311,16.480785,7.80491Q16.5,7.9015086,16.5,8L16.5,8.5Q16.5,8.598491,16.480785,8.69509Q16.461570000000002,8.791689,16.423879,8.882683Q16.386188,8.973678,16.33147,9.05557Q16.276751,9.13746,16.207107,9.20711Q16.137463,9.27675,16.05557,9.33147Q15.973678,9.38619,15.882683,9.42388Q15.791689,9.46157,15.69509,9.48079Q15.5984914,9.5,15.5,9.5Q15.4015086,9.5,15.30491,9.48079Q15.208311,9.46157,15.117317,9.42388Q15.026322,9.38619,14.94443,9.33147Q14.862537,9.27675,14.792893,9.20711Q14.723249,9.13746,14.66853,9.05557Q14.613812,8.973678,14.576121,8.882683Q14.53843,8.791689,14.519214999999999,8.69509Q14.5,8.598491,14.5,8.5ZM16.5,8.5Q16.5,8.598491,16.480785,8.69509Q16.461570000000002,8.791689,16.423879,8.882683Q16.386188,8.973678,16.33147,9.05557Q16.276751,9.13746,16.207107,9.20711Q16.137463,9.27675,16.05557,9.33147Q15.973678,9.38619,15.882683,9.42388Q15.791689,9.46157,15.69509,9.48079Q15.5984914,9.5,15.5,9.5Q15.4015086,9.5,15.30491,9.48079Q15.208311,9.46157,15.117317,9.42388Q15.026322,9.38619,14.94443,9.33147Q14.862537,9.27675,14.792893,9.20711Q14.723249,9.13746,14.66853,9.05557Q14.613812,8.973678,14.576121,8.882683Q14.53843,8.791689,14.519214999999999,8.69509Q14.5,8.598491,14.5,8.5Q14.5,8.401509,14.519214999999999,8.30491Q14.53843,8.208311,14.576121,8.117317Q14.613812,8.0263224,14.66853,7.9444298Q14.723249,7.862537,14.792893,7.792893Q14.862537,7.723249,14.94443,7.66853Q15.026322,7.613812,15.117317,7.576121Q15.208311,7.538429,15.30491,7.519215Q15.4015086,7.5,15.5,7.5Q15.5984914,7.5,15.69509,7.519215Q15.791689,7.538429,15.882683,7.57612Q15.973678,7.613812,16.05557,7.66853Q16.137463,7.723249,16.207107,7.792893Q16.276751,7.862537,16.33147,7.9444298Q16.386188,8.0263224,16.423879,8.117317Q16.461570000000002,8.208311,16.480785,8.30491Q16.5,8.401509,16.5,8.5ZM16.5,8Q16.5,8.0984914,16.480785,8.19509Q16.461570000000002,8.291689,16.423879,8.382683Q16.386188,8.473678,16.33147,8.55557Q16.276751,8.637463,16.207107,8.707107Q16.137463,8.776751,16.05557,8.83147Q15.973678,8.886188,15.882683,8.923879Q15.791689,8.96157,15.69509,8.980785000000001Q15.5984914,9,15.5,9Q15.4015086,9,15.30491,8.980785000000001Q15.208311,8.96157,15.117317,8.923879Q15.026322,8.886188,14.94443,8.83147Q14.862537,8.776751,14.792893,8.707107Q14.723249,8.637463,14.66853,8.55557Q14.613812,8.473678,14.576121,8.382683Q14.53843,8.291689,14.519214999999999,8.19509Q14.5,8.0984914,14.5,8Q14.5,7.9015086,14.519214999999999,7.80491Q14.53843,7.708311,14.576121,7.617317Q14.613812,7.526322,14.66853,7.44443Q14.723249,7.362537,14.792893,7.292893Q14.862537,7.223249,14.94443,7.16853Q15.026322,7.113812,15.117317,7.076121Q15.208311,7.03843,15.30491,7.019215Q15.4015086,7,15.5,7Q15.5984914,7,15.69509,7.019215Q15.791689,7.03843,15.882683,7.076121Q15.973678,7.113812,16.05557,7.16853Q16.137463,7.223249,16.207107,7.292893Q16.276751,7.362537,16.33147,7.44443Q16.386188,7.526322,16.423879,7.617317Q16.461570000000002,7.708311,16.480785,7.80491Q16.5,7.9015086,16.5,8Z" fill="#1A8BFE" fill-opacity="1"/></g><g><path d="M7.5,8.5L7.5,8Q7.5,7.9015086,7.519215,7.80491Q7.53843,7.708311,7.576121,7.617317Q7.613812,7.526322,7.66853,7.44443Q7.723249,7.362537,7.792893,7.292893Q7.862537,7.223249,7.94443,7.16853Q8.026322,7.113812,8.117317,7.076121Q8.208311,7.03843,8.30491,7.019215Q8.4015086,7,8.5,7Q8.5984914,7,8.69509,7.019215Q8.791689,7.03843,8.882683,7.076121Q8.973678,7.113812,9.05557,7.16853Q9.137463,7.223249,9.207107,7.292893Q9.276751,7.362537,9.33147,7.44443Q9.386188,7.526322,9.423879,7.617317Q9.46157,7.708311,9.480785000000001,7.80491Q9.5,7.9015086,9.5,8L9.5,8.5Q9.5,8.598491,9.480785000000001,8.69509Q9.46157,8.791689,9.423879,8.882683Q9.386188,8.973678,9.33147,9.05557Q9.276751,9.13746,9.207107,9.20711Q9.137463,9.27675,9.05557,9.33147Q8.973678,9.38619,8.882683,9.42388Q8.791689,9.46157,8.69509,9.48079Q8.5984914,9.5,8.5,9.5Q8.4015086,9.5,8.30491,9.48079Q8.208311,9.46157,8.117317,9.42388Q8.026322,9.38619,7.94443,9.33147Q7.862537,9.27675,7.792893,9.20711Q7.723249,9.13746,7.66853,9.05557Q7.613812,8.973678,7.576121,8.882683Q7.53843,8.791689,7.519215,8.69509Q7.5,8.598491,7.5,8.5ZM9.5,8.5Q9.5,8.598491,9.480785000000001,8.69509Q9.46157,8.791689,9.423879,8.882683Q9.386188,8.973678,9.33147,9.05557Q9.276751,9.13746,9.207107,9.20711Q9.137463,9.27675,9.05557,9.33147Q8.973678,9.38619,8.882683,9.42388Q8.791689,9.46157,8.69509,9.48079Q8.5984914,9.5,8.5,9.5Q8.4015086,9.5,8.30491,9.48079Q8.208311,9.46157,8.117317,9.42388Q8.026322,9.38619,7.94443,9.33147Q7.862537,9.27675,7.792893,9.20711Q7.723249,9.13746,7.66853,9.05557Q7.613812,8.973678,7.576121,8.882683Q7.53843,8.791689,7.519215,8.69509Q7.5,8.598491,7.5,8.5Q7.5,8.401509,7.519215,8.30491Q7.53843,8.208311,7.576121,8.117317Q7.613812,8.0263224,7.66853,7.9444298Q7.723249,7.862537,7.792893,7.792893Q7.862537,7.723249,7.94443,7.66853Q8.026322,7.613812,8.117317,7.576121Q8.208311,7.538429,8.30491,7.519215Q8.4015086,7.5,8.5,7.5Q8.5984914,7.5,8.69509,7.519215Q8.791689,7.538429,8.882683,7.57612Q8.973678,7.613812,9.05557,7.66853Q9.137463,7.723249,9.207107,7.792893Q9.276751,7.862537,9.33147,7.9444298Q9.386188,8.0263224,9.423879,8.117317Q9.46157,8.208311,9.480785000000001,8.30491Q9.5,8.401509,9.5,8.5ZM9.5,8Q9.5,8.0984914,9.480785000000001,8.19509Q9.46157,8.291689,9.423879,8.382683Q9.386188,8.473678,9.33147,8.55557Q9.276751,8.637463,9.207107,8.707107Q9.137463,8.776751,9.05557,8.83147Q8.973678,8.886188,8.882683,8.923879Q8.791689,8.96157,8.69509,8.980785000000001Q8.5984914,9,8.5,9Q8.4015086,9,8.30491,8.980785000000001Q8.208311,8.96157,8.117317,8.923879Q8.026322,8.886188,7.94443,8.83147Q7.862537,8.776751,7.792893,8.707107Q7.723249,8.637463,7.66853,8.55557Q7.613812,8.473678,7.576121,8.382683Q7.53843,8.291689,7.519215,8.19509Q7.5,8.0984914,7.5,8Q7.5,7.9015086,7.519215,7.80491Q7.53843,7.708311,7.576121,7.617317Q7.613812,7.526322,7.66853,7.44443Q7.723249,7.362537,7.792893,7.292893Q7.862537,7.223249,7.94443,7.16853Q8.026322,7.113812,8.117317,7.076121Q8.208311,7.03843,8.30491,7.019215Q8.4015086,7,8.5,7Q8.5984914,7,8.69509,7.019215Q8.791689,7.03843,8.882683,7.076121Q8.973678,7.113812,9.05557,7.16853Q9.137463,7.223249,9.207107,7.292893Q9.276751,7.362537,9.33147,7.44443Q9.386188,7.526322,9.423879,7.617317Q9.46157,7.708311,9.480785000000001,7.80491Q9.5,7.9015086,9.5,8Z" fill="#1A8BFE" fill-opacity="1"/></g><g><path d="M9.394427,12.052786Q10.118030000000001,13.5,12,13.5Q13.881969999999999,13.5,14.60557,12.052786Q14.649619999999999,11.964693,14.71001,11.886885Q14.770389999999999,11.809078,14.8448,11.744546Q14.9192,11.680014,15.00477,11.631239Q15.09033,11.582463,15.183769999999999,11.551317Q15.27721,11.520171,15.374929999999999,11.507853Q15.47264,11.49553,15.57089,11.502516Q15.66913,11.509498,15.76413,11.535512Q15.85912,11.561526,15.94721,11.605573Q16.03531,11.64962,16.11311,11.710006Q16.19092,11.770393,16.25545,11.844798Q16.31998,11.919204,16.36876,12.00477Q16.41754,12.090335,16.44868,12.183772Q16.47983,12.277209,16.49215,12.374927Q16.504469999999998,12.4726454,16.49748,12.570889Q16.4905,12.669133,16.464489999999998,12.764126Q16.43847,12.85912,16.39443,12.947214Q15.118030000000001,15.5,12,15.5Q8.881966,15.5,7.605573,12.947214Q7.561526,12.85912,7.535512,12.764126Q7.509498,12.669133,7.502516,12.570889Q7.4955300000000005,12.4726454,7.507852,12.374927Q7.520171,12.277209,7.551317,12.183772Q7.582463,12.090335,7.631239,12.00477Q7.680014,11.919204,7.744546,11.844798Q7.8090779999999995,11.770393,7.886885,11.710006Q7.9646930000000005,11.64962,8.052786,11.605573Q8.14088,11.561526,8.235874,11.535512Q8.330867,11.509498,8.429111,11.502516Q8.5273546,11.49553,8.625073,11.507852Q8.722791,11.520171,8.816228,11.551317Q8.909665,11.582463,8.99523,11.631239Q9.080796,11.680014,9.155202,11.744546Q9.229607,11.809078,9.289994,11.886885Q9.35038,11.964693,9.394427,12.052786ZM9.5,12.5Q9.5,12.5984914,9.480785000000001,12.69509Q9.46157,12.791689,9.423879,12.882683Q9.386188,12.973678,9.33147,13.05557Q9.276751,13.137463,9.207107,13.207107Q9.137463,13.276751,9.05557,13.33147Q8.973678,13.386188,8.882683,13.423879Q8.791689,13.46157,8.69509,13.480785000000001Q8.5984914,13.5,8.5,13.5Q8.4015086,13.5,8.30491,13.480785000000001Q8.208311,13.46157,8.117317,13.423879Q8.026322,13.386188,7.94443,13.33147Q7.862537,13.276751,7.792893,13.207107Q7.723249,13.137463,7.66853,13.05557Q7.613812,12.973678,7.576121,12.882683Q7.53843,12.791689,7.519215,12.69509Q7.5,12.5984914,7.5,12.5Q7.5,12.4015086,7.519215,12.30491Q7.53843,12.208311,7.576121,12.117317Q7.613812,12.026322,7.66853,11.94443Q7.723249,11.862537,7.792893,11.792893Q7.862537,11.723249,7.94443,11.66853Q8.026322,11.613812,8.117317,11.576121Q8.208311,11.53843,8.30491,11.519214999999999Q8.4015086,11.5,8.5,11.5Q8.5984914,11.5,8.69509,11.519214999999999Q8.791689,11.53843,8.882683,11.576121Q8.973678,11.613812,9.05557,11.66853Q9.137463,11.723249,9.207107,11.792893Q9.276751,11.862537,9.33147,11.94443Q9.386188,12.026322,9.423879,12.117317Q9.46157,12.208311,9.480785000000001,12.30491Q9.5,12.4015086,9.5,12.5ZM16.5,12.5Q16.5,12.5984914,16.48078,12.69509Q16.461570000000002,12.791689,16.42388,12.882683Q16.38619,12.973678,16.33147,13.05557Q16.27675,13.137463,16.20711,13.207107Q16.13746,13.276751,16.05557,13.33147Q15.97368,13.386188,15.88268,13.423879Q15.79169,13.46157,15.69509,13.480785000000001Q15.59849,13.5,15.5,13.5Q15.40151,13.5,15.30491,13.480785000000001Q15.20831,13.46157,15.11732,13.423879Q15.02632,13.386188,14.94443,13.33147Q14.86254,13.276751,14.79289,13.207107Q14.72325,13.137463,14.66853,13.05557Q14.61381,12.973678,14.57612,12.882683Q14.53843,12.791689,14.519210000000001,12.69509Q14.5,12.5984914,14.5,12.5Q14.5,12.4015086,14.519210000000001,12.30491Q14.53843,12.208311,14.57612,12.117317Q14.61381,12.026322,14.66853,11.94443Q14.72325,11.862537,14.79289,11.792893Q14.86254,11.723249,14.94443,11.66853Q15.02632,11.613812,15.11732,11.576121Q15.20831,11.53843,15.30491,11.519214999999999Q15.40151,11.5,15.5,11.5Q15.59849,11.5,15.69509,11.519214999999999Q15.79169,11.53843,15.88268,11.576121Q15.97368,11.613812,16.05557,11.66853Q16.13746,11.723249,16.20711,11.792893Q16.27675,11.862537,16.33147,11.94443Q16.38619,12.026322,16.42388,12.117317Q16.461570000000002,12.208311,16.48078,12.30491Q16.5,12.4015086,16.5,12.5Z" fill="#1A8BFE" fill-opacity="1"/></g></g></svg>