<svg xmlns="http://www.w3.org/2000/svg" xmlns:xlink="http://www.w3.org/1999/xlink" fill="none" version="1.1" width="20" height="20" viewBox="0 0 20 20"><defs><clipPath id="master_svg0_89_02941"><rect x="0" y="0" width="20" height="20" rx="0"/></clipPath></defs><g clip-path="url(#master_svg0_89_02941)"><g><path d="M14.797805625,13.58349609375L16.744115625,13.58349609375Q16.916015625,13.58349609375,16.916015625,13.41159609375L16.916015625,3.25537609375Q16.916015625,3.08349609375,16.744115625,3.08349609375L6.587895625,3.08349609375Q6.416015625,3.08349609375,6.416015625,3.25537609375L6.416015625,5.17999609375Q6.416015625,5.278486093750001,6.396800625,5.375086093749999Q6.377585625,5.47168609375,6.339894625,5.5626760937499995Q6.302203625,5.653676093750001,6.247485625,5.73556609375Q6.192766625,5.81745609375,6.123122625,5.88710609375Q6.053478625,5.9567460937500005,5.971585625,6.01146609375Q5.889693625,6.06618609375,5.798698625,6.10387609375Q5.707704625,6.14156609375,5.611105625,6.16077609375Q5.514507025,6.17999609375,5.416015625,6.17999609375Q5.317524225,6.17999609375,5.220925625,6.16077609375Q5.124326625,6.14156609375,5.033332625,6.10387609375Q4.942337625,6.06618609375,4.860445625,6.01146609375Q4.778552625,5.9567460937500005,4.708908625,5.88710609375Q4.639264625,5.81745609375,4.584545625,5.73556609375Q4.529827625,5.653676093750001,4.492136625,5.5626760937499995Q4.454445625,5.47168609375,4.435230625,5.375086093749999Q4.416015625,5.278486093750001,4.416015625,5.17999609375L4.416015625,3.25536609375Q4.416015625,2.35575109375,5.052143625,1.71962409375Q5.688270625,1.08349609375,6.587895625,1.08349609375L16.744115625,1.08349609375Q17.643715625,1.08349609375,18.279915625,1.71962309375Q18.916015625,2.35575209375,18.916015625,3.25537609375L18.916015625,13.41159609375Q18.916015625,14.31119609375,18.279915625,14.94739609375Q17.643715625,15.58349609375,16.744115625,15.58349609375L14.797805625,15.58349609375Q14.699315625,15.58349609375,14.602715625,15.56429609375Q14.506115625,15.54509609375,14.415125625,15.50739609375Q14.324125625,15.46969609375,14.242235625,15.41499609375Q14.160345625,15.36019609375,14.090695625,15.29059609375Q14.021055625,15.22099609375,13.966335625,15.13909609375Q13.911615625,15.05719609375,13.873925625,14.96619609375Q13.836235625,14.87519609375,13.817025625,14.77859609375Q13.797805625,14.68199609375,13.797805625,14.58349609375Q13.797805625,14.48499609375,13.817025625,14.38839609375Q13.836235625,14.29179609375,13.873925625,14.20079609375Q13.911615625,14.10979609375,13.966335625,14.02789609375Q14.021055625,13.94599609375,14.090695625,13.87639609375Q14.160345625,13.80669609375,14.242235625,13.75199609375Q14.324125625,13.69729609375,14.415125625,13.65959609375Q14.506115625,13.62189609375,14.602715625,13.60269609375Q14.699315625,13.58349609375,14.797805625,13.58349609375ZM15.797815625,14.58349609375Q15.797815625,14.68199609375,15.778615625,14.77859609375Q15.759415625,14.87519609375,15.721715625,14.96619609375Q15.684015625,15.05719609375,15.629315625,15.13909609375Q15.574515625,15.22099609375,15.504915625,15.29059609375Q15.435315625,15.36019609375,15.353375625,15.41499609375Q15.271485625,15.46969609375,15.180485625,15.50739609375Q15.089495625,15.54509609375,14.992895625,15.56429609375Q14.896295625,15.58349609375,14.797805625,15.58349609375Q14.699315625,15.58349609375,14.602715625,15.56429609375Q14.506115625,15.54509609375,14.415125625,15.50739609375Q14.324125625,15.46969609375,14.242235625,15.41499609375Q14.160345625,15.36019609375,14.090695625,15.29059609375Q14.021055625,15.22099609375,13.966335625,15.13909609375Q13.911615625,15.05719609375,13.873925625,14.96619609375Q13.836235625,14.87519609375,13.817025625,14.77859609375Q13.797805625,14.68199609375,13.797805625,14.58349609375Q13.797805625,14.48499609375,13.817025625,14.38839609375Q13.836235625,14.29179609375,13.873925625,14.20079609375Q13.911615625,14.10979609375,13.966335625,14.02789609375Q14.021055625,13.94599609375,14.090695625,13.87639609375Q14.160345625,13.80669609375,14.242235625,13.75199609375Q14.324125625,13.69729609375,14.415125625,13.65959609375Q14.506115625,13.62189609375,14.602715625,13.60269609375Q14.699315625,13.58349609375,14.797805625,13.58349609375Q14.896295625,13.58349609375,14.992895625,13.60269609375Q15.089495625,13.62189609375,15.180485625,13.65959609375Q15.271485625,13.69729609375,15.353375625,13.75199609375Q15.435315625,13.80669609375,15.504915625,13.87639609375Q15.574515625,13.94599609375,15.629315625,14.02789609375Q15.684015625,14.10979609375,15.721715625,14.20079609375Q15.759415625,14.29179609375,15.778615625,14.38839609375Q15.797815625,14.48499609375,15.797815625,14.58349609375ZM6.416015625,5.17999609375Q6.416015625,5.278486093750001,6.396800625,5.375086093749999Q6.377585625,5.47168609375,6.339894625,5.5626760937499995Q6.302203625,5.653676093750001,6.247485625,5.73556609375Q6.192766625,5.81745609375,6.123122625,5.88710609375Q6.053478625,5.9567460937500005,5.971585625,6.01146609375Q5.889693625,6.06618609375,5.798698625,6.10387609375Q5.707704625,6.14156609375,5.611105625,6.16077609375Q5.514507025,6.17999609375,5.416015625,6.17999609375Q5.317524225,6.17999609375,5.220925625,6.16077609375Q5.124326625,6.14156609375,5.033332625,6.10387609375Q4.942337625,6.06618609375,4.860445625,6.01146609375Q4.778552625,5.9567460937500005,4.708908625,5.88710609375Q4.639264625,5.81745609375,4.584545625,5.73556609375Q4.529827625,5.653676093750001,4.492136625,5.5626760937499995Q4.454445625,5.47168609375,4.435230625,5.375086093749999Q4.416015625,5.278486093750001,4.416015625,5.17999609375Q4.416015625,5.08150609375,4.435230625,4.98490609375Q4.454445625,4.88830609375,4.492136625,4.79731609375Q4.529827625,4.70631609375,4.584545625,4.6244260937499995Q4.639264625,4.54253609375,4.708908625,4.472886093750001Q4.778552625,4.40324609375,4.860445625,4.348526093749999Q4.942337625,4.29380609375,5.033332625,4.25611609375Q5.124326625,4.218426093750001,5.220925625,4.19920609375Q5.317524225,4.17999609375,5.416015625,4.17999609375Q5.514507025,4.17999609375,5.611105625,4.19920609375Q5.707704625,4.218426093750001,5.798698625,4.25611609375Q5.889693625,4.29380609375,5.971585625,4.348526093749999Q6.053478625,4.40324609375,6.123122625,4.472886093750001Q6.192766625,4.54253609375,6.247485625,4.6244260937499995Q6.302203625,4.70631609375,6.339894625,4.79731609375Q6.377585625,4.88830609375,6.396800625,4.98490609375Q6.416015625,5.08150609375,6.416015625,5.17999609375Z" fill="#A9B8C7" fill-opacity="1"/></g><g><path d="M13.583984375,6.58838390625Q13.583984375,6.41650390625,13.412084375,6.41650390625L3.255864375,6.41650390625Q3.083984375,6.41650390625,3.083984375,6.58838390625L3.083984375,16.74460390625Q3.083984375,16.91650390625,3.255864375,16.91650390625L13.412084375,16.91650390625Q13.583984375,16.91650390625,13.583984375,16.74460390625L13.583984375,6.58838390625ZM15.583984375,6.58838390625L15.583984375,16.74460390625Q15.583984375,17.64420390625,14.947884375,18.28040390625Q14.311684375,18.91650390625,13.412084375,18.91650390625L3.255864375,18.91650390625Q2.356240375,18.91650390625,1.720111375,18.28040390625Q1.083984375,17.64420390625,1.083984375,16.74460390625L1.083984375,6.58837390625Q1.083984375,5.68875890625,1.720112375,5.05263190625Q2.356239375,4.41650390625,3.255864375,4.41650390625L13.412084375,4.41650390625Q14.311684375,4.41650390625,14.947884375,5.05263090625Q15.583984375,5.68875990625,15.583984375,6.58838390625Z" fill="#A9B8C7" fill-opacity="1"/></g></g></svg>