<svg xmlns="http://www.w3.org/2000/svg" xmlns:xlink="http://www.w3.org/1999/xlink" fill="none" version="1.1" width="24" height="24" viewBox="0 0 24 24"><defs><clipPath id="master_svg0_524_6263"><rect x="0" y="0" width="24" height="24" rx="0"/></clipPath></defs><g clip-path="url(#master_svg0_524_6263)"><g><path d="M6.5455499259185785,7.999995076751709L2.909179925918579,7.999995076751709Q2.810688525918579,7.999995076751709,2.714089925918579,7.980785076751709Q2.6174909259185792,7.961565076751709,2.526496925918579,7.923875076751709Q2.435501925918579,7.886185076751709,2.353609925918579,7.831465076751709Q2.271716925918579,7.776755076751709,2.202072925918579,7.707105076751709Q2.132428925918579,7.637465076751709,2.077709925918579,7.555565076751709Q2.0229919259185793,7.473675076751709,1.9853009259185792,7.382685076751709Q1.947609925918579,7.291685076751709,1.928394925918579,7.19508507675171Q1.909179925918579,7.098495076751709,1.909179925918579,6.999995076751709L1.909179925918579,3.363645076751709Q1.909179925918579,3.265153676751709,1.928394925918579,3.168555076751709Q1.947609925918579,3.071956076751709,1.9853009259185792,2.980962076751709Q2.0229919259185793,2.889967076751709,2.077709925918579,2.808075076751709Q2.132428925918579,2.726182076751709,2.202072925918579,2.656538076751709Q2.271716925918579,2.586894076751709,2.353609925918579,2.532175076751709Q2.435501925918579,2.4774570767517092,2.526496925918579,2.439766076751709Q2.6174909259185792,2.402075076751709,2.714089925918579,2.382860076751709Q2.810688525918579,2.363645076751709,2.909179925918579,2.363645076751709Q3.007671325918579,2.363645076751709,3.104269925918579,2.382860076751709Q3.200868925918579,2.402075076751709,3.291862925918579,2.439766076751709Q3.382857925918579,2.4774570767517092,3.464749925918579,2.532175076751709Q3.546642925918579,2.586894076751709,3.6162869259185793,2.656538076751709Q3.685930925918579,2.726182076751709,3.740649925918579,2.808075076751709Q3.795367925918579,2.889967076751709,3.833058925918579,2.980962076751709Q3.870749925918579,3.071956076751709,3.889964925918579,3.168555076751709Q3.909179925918579,3.265153676751709,3.909179925918579,3.363645076751709L3.909179925918579,6.999995076751709L2.909179925918579,6.999995076751709L2.909179925918579,5.999995076751709L6.5455499259185785,5.999995076751709Q6.6440399259185785,5.999995076751709,6.740639925918579,6.019215076751709Q6.837239925918579,6.038425076751709,6.928229925918579,6.076125076751708Q7.019229925918579,6.113815076751709,7.101119925918579,6.168535076751709Q7.183009925918579,6.223245076751709,7.252659925918579,6.292895076751709Q7.322299925918579,6.362535076751708,7.377019925918579,6.444425076751709Q7.4317399259185795,6.526325076751709,7.469429925918579,6.617315076751709Q7.5071199259185795,6.708315076751709,7.526329925918579,6.804905076751709Q7.545549925918579,6.901505076751709,7.545549925918579,6.999995076751709Q7.545549925918579,7.098495076751709,7.526329925918579,7.19508507675171Q7.5071199259185795,7.291685076751709,7.469429925918579,7.382685076751709Q7.4317399259185795,7.473675076751709,7.377019925918579,7.555565076751709Q7.322299925918579,7.637465076751709,7.252659925918579,7.707105076751709Q7.183009925918579,7.776755076751709,7.101119925918579,7.831465076751709Q7.019229925918579,7.886185076751709,6.928229925918579,7.923875076751709Q6.837239925918579,7.961565076751709,6.740639925918579,7.980785076751709Q6.6440399259185785,7.999995076751709,6.5455499259185785,7.999995076751709ZM7.545549925918579,6.999995076751709Q7.545549925918579,7.098495076751709,7.526329925918579,7.19508507675171Q7.5071199259185795,7.291685076751709,7.469429925918579,7.382685076751709Q7.4317399259185795,7.473675076751709,7.377019925918579,7.555565076751709Q7.322299925918579,7.637465076751709,7.252659925918579,7.707105076751709Q7.183009925918579,7.776755076751709,7.101119925918579,7.831465076751709Q7.019229925918579,7.886185076751709,6.928229925918579,7.923875076751709Q6.837239925918579,7.961565076751709,6.740639925918579,7.980785076751709Q6.6440399259185785,7.999995076751709,6.5455499259185785,7.999995076751709Q6.447059925918579,7.999995076751709,6.350459925918579,7.980785076751709Q6.253859925918579,7.961565076751709,6.16286992591858,7.923875076751709Q6.071869925918579,7.886185076751709,5.989979925918579,7.831465076751709Q5.9080899259185795,7.776755076751709,5.838439925918579,7.707105076751709Q5.768799925918579,7.637465076751709,5.714079925918579,7.555565076751709Q5.659359925918579,7.473675076751709,5.621669925918579,7.382685076751709Q5.5839799259185785,7.291685076751709,5.56475992591858,7.19508507675171Q5.5455499259185785,7.098495076751709,5.5455499259185785,6.999995076751709Q5.5455499259185785,6.901505076751709,5.56475992591858,6.804905076751709Q5.5839799259185785,6.708315076751709,5.621669925918579,6.617315076751709Q5.659359925918579,6.526325076751709,5.714079925918579,6.444425076751709Q5.768799925918579,6.362535076751708,5.838439925918579,6.292895076751709Q5.9080899259185795,6.223245076751709,5.989979925918579,6.168525076751709Q6.071869925918579,6.113815076751709,6.16286992591858,6.076125076751708Q6.253859925918579,6.038425076751709,6.350459925918579,6.019215076751709Q6.447059925918579,5.999995076751709,6.5455499259185785,5.999995076751709Q6.6440399259185785,5.999995076751709,6.740639925918579,6.019215076751709Q6.837239925918579,6.038425076751709,6.928229925918579,6.076125076751708Q7.019229925918579,6.113815076751709,7.101119925918579,6.168535076751709Q7.183009925918579,6.223245076751709,7.252659925918579,6.292895076751709Q7.322299925918579,6.362535076751708,7.377019925918579,6.444425076751709Q7.4317399259185795,6.526325076751709,7.469429925918579,6.617315076751709Q7.5071199259185795,6.708315076751709,7.526329925918579,6.804905076751709Q7.545549925918579,6.901505076751709,7.545549925918579,6.999995076751709ZM3.909179925918579,3.363645076751709Q3.909179925918579,3.462136476751709,3.889964925918579,3.558735076751709Q3.870749925918579,3.655334076751709,3.833058925918579,3.746328076751709Q3.795367925918579,3.837323076751709,3.740649925918579,3.919215076751709Q3.685930925918579,4.001108076751709,3.6162869259185793,4.070752076751709Q3.546642925918579,4.140396076751709,3.464749925918579,4.195115076751709Q3.382857925918579,4.249833076751709,3.291862925918579,4.287524076751709Q3.200868925918579,4.325215076751709,3.104269925918579,4.344430076751709Q3.007671325918579,4.363645076751709,2.909179925918579,4.363645076751709Q2.810688525918579,4.363645076751709,2.714089925918579,4.344430076751709Q2.6174909259185792,4.325215076751709,2.526496925918579,4.287524076751709Q2.435501925918579,4.249833076751709,2.353609925918579,4.195115076751709Q2.271716925918579,4.140396076751709,2.202072925918579,4.070752076751709Q2.132428925918579,4.001108076751709,2.077709925918579,3.919215076751709Q2.0229919259185793,3.837323076751709,1.9853009259185792,3.746328076751709Q1.947609925918579,3.655334076751709,1.928394925918579,3.558735076751709Q1.909179925918579,3.462136476751709,1.909179925918579,3.363645076751709Q1.909179925918579,3.265153676751709,1.928394925918579,3.168555076751709Q1.947609925918579,3.071956076751709,1.9853009259185792,2.980962076751709Q2.0229919259185793,2.889967076751709,2.077709925918579,2.808075076751709Q2.132428925918579,2.726182076751709,2.202072925918579,2.656538076751709Q2.271716925918579,2.586894076751709,2.353609925918579,2.532175076751709Q2.435501925918579,2.4774570767517092,2.526496925918579,2.439766076751709Q2.6174909259185792,2.402075076751709,2.714089925918579,2.382860076751709Q2.810688525918579,2.363645076751709,2.909179925918579,2.363645076751709Q3.007671325918579,2.363645076751709,3.104269925918579,2.382860076751709Q3.200868925918579,2.402075076751709,3.291862925918579,2.439766076751709Q3.382857925918579,2.4774570767517092,3.464749925918579,2.532175076751709Q3.546642925918579,2.586894076751709,3.6162869259185793,2.656538076751709Q3.685930925918579,2.726182076751709,3.740649925918579,2.808075076751709Q3.795367925918579,2.889967076751709,3.833058925918579,2.980962076751709Q3.870749925918579,3.071956076751709,3.889964925918579,3.168555076751709Q3.909179925918579,3.265153676751709,3.909179925918579,3.363645076751709Z" fill="#1A8BFE" fill-opacity="1"/></g><g><path d="M2.4728310000000002,6.49823Q3.9245,3.98933,6.422,2.517338Q8.99644,1,12,1Q14.2373,1,16.282,1.864845Q18.2562,2.699865,19.7782,4.22182Q21.3001,5.74378,22.1352,7.718Q23,9.76272,23,12Q23,14.2373,22.1352,16.282Q21.3001,18.2562,19.7782,19.7782Q18.2562,21.3001,16.282,22.1352Q14.2373,23,12,23Q9.76272,23,7.718,22.1352Q5.74378,21.3001,4.22182,19.7782Q2.699866,18.2562,1.864845,16.282Q1,14.2373,1,12Q1,11.90151,1.019215,11.80491Q1.03843,11.70831,1.076121,11.61732Q1.113812,11.52632,1.16853,11.44443Q1.223249,11.36254,1.2928929999999998,11.29289Q1.362537,11.22325,1.44443,11.16853Q1.526322,11.11381,1.617317,11.07612Q1.7083110000000001,11.03843,1.80491,11.01921Q1.9015086,11,2,11Q2.0984914,11,2.19509,11.01921Q2.291689,11.03843,2.382683,11.07612Q2.473678,11.11381,2.55557,11.16853Q2.637463,11.22325,2.707107,11.29289Q2.776751,11.36254,2.83147,11.44443Q2.8861879999999998,11.52632,2.923879,11.61732Q2.96157,11.70831,2.980785,11.80491Q3,11.90151,3,12Q3,13.8317,3.70685,15.5029Q4.38991,17.117800000000003,5.6360399999999995,18.364Q6.88217,19.6101,8.4971,20.2931Q10.16829,21,12,21Q13.8317,21,15.5029,20.2931Q17.117800000000003,19.6101,18.364,18.364Q19.6101,17.117800000000003,20.2931,15.5029Q21,13.8317,21,12Q21,10.1683,20.2931,8.4971Q19.6101,6.88216,18.364,5.6360399999999995Q17.117800000000003,4.38991,15.5029,3.70685Q13.8317,3,12,3Q9.54197,3,7.43751,4.24034Q5.39254,5.44561,4.203939999999999,7.49987Q4.15461,7.58511,4.0896,7.6591Q4.02459,7.73309,3.9463999999999997,7.79298Q3.8682,7.85286,3.77983,7.89634Q3.6914499999999997,7.93982,3.5962899999999998,7.96522Q3.50113,7.99062,3.40285,7.99697Q3.30456,8.00332,3.20692,7.99037Q3.10929,7.97742,3.01605,7.94568Q2.922819,7.91393,2.8375690000000002,7.8646Q2.75232,7.81528,2.678331,7.75027Q2.604343,7.68526,2.544458,7.60706Q2.484574,7.52887,2.441096,7.44049Q2.397618,7.35212,2.372216,7.25696Q2.346814,7.1618,2.340465,7.06351Q2.334116,6.96523,2.347064,6.86759Q2.360011,6.76995,2.391758,6.67672Q2.423505,6.58348,2.4728310000000002,6.49823ZM4.33839,6.99905Q4.33839,7.09754,4.31917,7.19414Q4.2999600000000004,7.29074,4.2622599999999995,7.38173Q4.22457,7.47273,4.16985,7.55462Q4.11514,7.63651,4.04549,7.70616Q3.9758500000000003,7.7758,3.8939500000000002,7.83052Q3.81206,7.88524,3.72107,7.92293Q3.63007,7.96062,3.53348,7.97984Q3.43688,7.99905,3.33839,7.99905Q3.23989,7.99905,3.14329,7.97983Q3.0467,7.96062,2.955702,7.92293Q2.864707,7.88524,2.7828150000000003,7.83052Q2.7009220000000003,7.7758,2.631278,7.70616Q2.5616339999999997,7.63651,2.5069150000000002,7.55462Q2.452197,7.47273,2.414506,7.38173Q2.376815,7.29074,2.3576,7.19414Q2.338385,7.09754,2.338385,6.99905Q2.338385,6.90056,2.3576,6.80396Q2.376815,6.70736,2.414506,6.61637Q2.452197,6.52537,2.5069150000000002,6.44348Q2.5616339999999997,6.36159,2.631278,6.29194Q2.7009220000000003,6.2223,2.7828150000000003,6.16758Q2.864707,6.11286,2.955702,6.07517Q3.0467,6.03748,3.14329,6.01826Q3.23989,5.99905,3.33839,5.99905Q3.43688,5.99905,3.53348,6.01826Q3.63007,6.03748,3.72107,6.07517Q3.81206,6.11286,3.8939500000000002,6.16758Q3.9758500000000003,6.2223,4.04549,6.29194Q4.11514,6.36159,4.16985,6.44348Q4.22457,6.52537,4.2622599999999995,6.61637Q4.2999600000000004,6.70736,4.31917,6.80396Q4.33839,6.90056,4.33839,6.99905ZM3,12Q3,12.0985,2.980785,12.1951Q2.96157,12.2917,2.923879,12.3827Q2.8861879999999998,12.4737,2.83147,12.5556Q2.776751,12.6375,2.707107,12.7071Q2.637463,12.7767,2.55557,12.8315Q2.473678,12.8862,2.382683,12.9239Q2.291689,12.9616,2.19509,12.9808Q2.0984914,13,2,13Q1.9015086,13,1.80491,12.9808Q1.7083110000000001,12.9616,1.617317,12.9239Q1.526322,12.8862,1.44443,12.8315Q1.362537,12.7767,1.2928929999999998,12.7071Q1.223249,12.6375,1.16853,12.5556Q1.113812,12.4737,1.076121,12.3827Q1.03843,12.2917,1.019215,12.1951Q1,12.0985,1,12Q1,11.90151,1.019215,11.80491Q1.03843,11.70831,1.076121,11.61732Q1.113812,11.52632,1.16853,11.44443Q1.223249,11.36254,1.2928929999999998,11.29289Q1.362537,11.22325,1.44443,11.16853Q1.526322,11.11381,1.617317,11.07612Q1.7083110000000001,11.03843,1.80491,11.01921Q1.9015086,11,2,11Q2.0984914,11,2.19509,11.01921Q2.291689,11.03843,2.382683,11.07612Q2.473678,11.11381,2.55557,11.16853Q2.637463,11.22325,2.707107,11.29289Q2.776751,11.36254,2.83147,11.44443Q2.8861879999999998,11.52632,2.923879,11.61732Q2.96157,11.70831,2.980785,11.80491Q3,11.90151,3,12Z" fill="#1A8BFE" fill-opacity="1"/></g><g><path d="M15.53448971923828,16.9512L11.29479271923828,12.71151Q11.15412271923828,12.57084,11.07800071923828,12.387039999999999Q11.001879719238282,12.203240000000001,11.001899719238281,12.0043L11.002499719238282,5.9999000964Q11.002509719238281,5.9014087,11.02173371923828,5.804812Q11.040958719238281,5.708215,11.07865871923828,5.617224Q11.116358719238281,5.526234,11.171085719238281,5.4443470000000005Q11.22581271923828,5.3624600000000004,11.295463719238281,5.292823Q11.365114719238282,5.223186,11.44701271923828,5.168475Q11.528910719238281,5.113764,11.619908719238282,5.0760819999999995Q11.710906719238281,5.0384,11.80750771923828,5.019195Q11.90410811923828,4.99999,12.002599484238281,5Q12.101090919238281,5.00001,12.197687719238282,5.019234Q12.29428471923828,5.038459,12.385275719238281,5.076159Q12.476265719238281,5.113859,12.558152719238281,5.168586Q12.640039719238281,5.223313,12.709676719238281,5.292964Q12.779313719238282,5.362615,12.83402471923828,5.444513Q12.888735719238282,5.526411,12.92641771923828,5.617409Q12.964098719238281,5.708407,12.983304719238282,5.805008Q13.002509719238281,5.9016085,13.002499719238282,6.0000999036L13.001899719238281,12.0045L12.001899719238281,12.0044L12.709006719238282,11.29729L16.94870971923828,15.53699Q17.01834971923828,15.60664,17.073069719238283,15.68853Q17.12778971923828,15.77042,17.16547971923828,15.86142Q17.203169719238282,15.95241,17.222379719238283,16.049Q17.24159971923828,16.1456,17.24159971923828,16.2441Q17.24159971923828,16.342599999999997,17.222379719238283,16.4392Q17.203169719238282,16.535800000000002,17.16547971923828,16.6268Q17.12778971923828,16.7178,17.073069719238283,16.7997Q17.01834971923828,16.8816,16.94870971923828,16.9512Q16.87905971923828,17.020899999999997,16.797169719238283,17.0756Q16.715279719238282,17.1303,16.62427971923828,17.168Q16.533289719238283,17.2057,16.43668971923828,17.224899999999998Q16.340089719238282,17.2441,16.24159971923828,17.2441Q16.143109719238282,17.2441,16.04650971923828,17.224899999999998Q15.949909719238281,17.2057,15.858919719238282,17.168Q15.767919719238282,17.1303,15.686029719238281,17.0756Q15.604139719238281,17.020899999999997,15.53448971923828,16.9512ZM17.24159971923828,16.2441Q17.24159971923828,16.342599999999997,17.22238971923828,16.4392Q17.203169719238282,16.535800000000002,17.16547971923828,16.6268Q17.12778971923828,16.7178,17.073069719238283,16.7997Q17.01834971923828,16.8816,16.94870971923828,16.9512Q16.87905971923828,17.020899999999997,16.797169719238283,17.0756Q16.715279719238282,17.1303,16.62427971923828,17.168Q16.533289719238283,17.2057,16.43668971923828,17.224899999999998Q16.340089719238282,17.2441,16.24159971923828,17.2441Q16.143109719238282,17.2441,16.04650971923828,17.224899999999998Q15.949909719238281,17.2057,15.858919719238282,17.168Q15.767919719238282,17.1303,15.686029719238281,17.0756Q15.604139719238281,17.020899999999997,15.53448971923828,16.9512Q15.46484971923828,16.8816,15.410129719238281,16.7997Q15.355409719238281,16.7178,15.317719719238282,16.6268Q15.280029719238282,16.535800000000002,15.260809719238281,16.4392Q15.24159971923828,16.342599999999997,15.24159971923828,16.2441Q15.24159971923828,16.1456,15.260809719238281,16.049Q15.280029719238282,15.95241,15.317719719238282,15.86142Q15.355409719238281,15.77042,15.410129719238281,15.68853Q15.46484971923828,15.60664,15.53448971923828,15.53699Q15.604139719238281,15.46735,15.686029719238281,15.41263Q15.767919719238282,15.35791,15.858919719238282,15.32022Q15.949909719238281,15.28253,16.04650971923828,15.26331Q16.143109719238282,15.2441,16.24159971923828,15.2441Q16.340089719238282,15.2441,16.43668971923828,15.26332Q16.533289719238283,15.28253,16.62427971923828,15.32022Q16.715279719238282,15.35791,16.797169719238283,15.41263Q16.87905971923828,15.46735,16.94870971923828,15.53699Q17.01834971923828,15.60664,17.073069719238283,15.68853Q17.12778971923828,15.77042,17.16547971923828,15.86142Q17.203169719238282,15.95241,17.22238971923828,16.049Q17.24159971923828,16.1456,17.24159971923828,16.2441ZM13.002499719238282,6Q13.002499719238282,6.0984914,12.98328471923828,6.19509Q12.964069719238282,6.291689,12.926378719238281,6.382683Q12.88868771923828,6.473678,12.833968719238282,6.55557Q12.77925071923828,6.637463,12.70960671923828,6.707107Q12.639962719238282,6.776751,12.558069719238281,6.83147Q12.476176719238282,6.886188,12.385182719238282,6.923879Q12.294188719238281,6.96157,12.197589719238282,6.980785Q12.10099101923828,7,12.00249958023828,7Q11.904008219238282,7,11.807409719238281,6.980785Q11.710810719238282,6.96157,11.61981571923828,6.923879Q11.528821719238282,6.886188,11.44692971923828,6.83147Q11.365036719238281,6.776751,11.295392719238281,6.707107Q11.22574871923828,6.637463,11.17102971923828,6.55557Q11.116310719238282,6.473678,11.078619719238281,6.382683Q11.04092871923828,6.291689,11.02171471923828,6.19509Q11.002499719238282,6.0984914,11.002499719238282,6Q11.002499719238282,5.9015086,11.02171471923828,5.80491Q11.04092871923828,5.708311,11.078619719238281,5.617317Q11.116310719238282,5.526322,11.17102971923828,5.44443Q11.22574871923828,5.362537,11.295392719238281,5.292893Q11.365036719238281,5.223249,11.44692971923828,5.16853Q11.528821719238282,5.113812,11.61981571923828,5.076121Q11.710810719238282,5.03843,11.807409719238281,5.019215Q11.904008219238282,5,12.00249958023828,5Q12.10099101923828,5,12.197589719238282,5.019215Q12.294188719238281,5.03843,12.385182719238282,5.076121Q12.476176719238282,5.113812,12.558069719238281,5.16853Q12.639962719238282,5.223249,12.70960671923828,5.292893Q12.77925071923828,5.362537,12.833968719238282,5.44443Q12.88868771923828,5.526322,12.926378719238281,5.617317Q12.964069719238282,5.708311,12.98328471923828,5.80491Q13.002499719238282,5.9015086,13.002499719238282,6Z" fill="#1A8BFE" fill-opacity="1"/></g></g></svg>