<svg xmlns="http://www.w3.org/2000/svg" xmlns:xlink="http://www.w3.org/1999/xlink" fill="none" version="1.1" width="56" height="56" viewBox="0 0 56 56"><defs><clipPath id="master_svg0_734_6552"><rect x="19.4287109375" y="18.2861328125" width="18.285717010498047" height="18.285715103149414" rx="0"/></clipPath></defs><g><g style="opacity:0.20000000298023224;"><ellipse cx="28" cy="28" rx="28" ry="28" fill="#DDEEFF" fill-opacity="1"/><ellipse cx="28" cy="28" rx="27.5" ry="27.5" fill-opacity="0" stroke-opacity="0.20000000298023224" stroke="#1A8BFE" fill="none" stroke-width="1"/></g><g clip-path="url(#master_svg0_734_6552)"><g><rect x="19.4287109375" y="18.2861328125" width="18.285717010498047" height="18.285717010498047" rx="0" fill="#FFFFFF" fill-opacity="0.009999999776482582"/></g><g><path d="M36.5183140625,23.18948575L36.5185140625,23.18926875Q36.5193140625,23.18842375,36.5202140625,23.18757575Q36.6608140625,23.04692275,36.7370140625,22.86315175Q36.8131140625,22.67938075,36.8131140625,22.480468750000007Q36.8131140625,22.28218075,36.7374140625,22.09889475Q36.6618140625,21.91560975,36.5219140625,21.77506275Q36.5210140625,21.77421075,36.5202140625,21.77336175Q36.3800140625,21.63314975,36.1969140625,21.55704875Q36.0138140625,21.48094675,35.8155140625,21.48047175L35.8153140625,21.48047175L35.8134140625,21.48046875L35.8131140625,21.48046875Q35.6148140625,21.48046875,35.4315140625,21.55613075Q35.2482140625,21.63179375,35.1077140625,21.77166875L35.1075140625,21.77188475L25.8607240625,30.97439875L22.0426260625,27.17455875L22.0423240625,27.17425875Q21.9017760625,27.034388749999998,21.7184900625,26.95871875Q21.5352030625,26.88305875,21.33691406250001,26.88305875L21.3345166625,26.88305875Q21.1356050625,26.88353875,20.9520170625,26.96009875Q20.7684290625,27.03665875,20.6281140625,27.17764875Q20.4882390625,27.31819875,20.4125760625,27.50147875Q20.3369140625,27.68476875,20.3369140625,27.88305875L20.3369170625,27.885458749999998Q20.3373940625,28.08436875,20.4139550625,28.26795875Q20.4905150625,28.45154875,20.6315040625,28.59185875L20.6318070625,28.59215875L25.1553140625,33.09406875Q25.224914062499998,33.16326875,25.3066540625,33.21766875Q25.388384062500002,33.27206875,25.479144062499998,33.30956875Q25.5699040625,33.34706875,25.6662240625,33.36616875Q25.762534062500002,33.38526875,25.8607240625,33.38526875Q25.9589140625,33.38526875,26.0552240625,33.36616875Q26.1515440625,33.34706875,26.2423040625,33.30956875Q26.3330540625,33.27206875,26.4147940625,33.21766875Q26.4965340625,33.16326875,26.566134062499998,33.09406875L36.5183140625,23.18948575Z" fill-rule="evenodd" fill="#1A8BFE" fill-opacity="1"/></g></g></g></svg>