<svg
  xmlns="http://www.w3.org/2000/svg"
  xmlns:xlink="http://www.w3.org/1999/xlink"
  fill="none"
  version="1.1"
  width="20"
  height="20"
  viewBox="0 0 20 20"
>
  <defs>
    <clipPath id="master_svg0_89_02950">
      <rect x="20" y="0" width="20" height="20" rx="0" />
    </clipPath>
  </defs>
  <g transform="matrix(-1,0,0,1,40,0)" clip-path="url(#master_svg0_89_02950)">
    <g>
      <rect x="20" y="0" width="20" height="20" rx="0" fill="#FFFFFF" fill-opacity="0.009999999776482582" />
    </g>
    <g>
      <path
        d="M30,18.5L22.5,18.5Q22.4015086,18.5,22.30491,18.480800000000002Q22.208311,18.4616,22.117317,18.4239Q22.026322,18.386200000000002,21.94443,18.3315Q21.862537,18.276699999999998,21.792893,18.2071Q21.723249,18.1375,21.66853,18.0556Q21.613812,17.9737,21.576121,17.8827Q21.538429999999998,17.7917,21.519215,17.6951Q21.5,17.5985,21.5,17.5L21.5,2.5Q21.5,2.4015086,21.519215,2.30491Q21.538429999999998,2.208311,21.576121,2.117317Q21.613812,2.026322,21.66853,1.94443Q21.723249,1.862537,21.792893,1.7928929999999998Q21.862537,1.723249,21.94443,1.66853Q22.026322,1.613812,22.117317,1.576121Q22.208311,1.53843,22.30491,1.519215Q22.4015086,1.5,22.5,1.5L29.99654,1.5Q30.09503,1.5,30.19163,1.519215Q30.28823,1.53843,30.37922,1.576121Q30.47022,1.613812,30.55211,1.66853Q30.634,1.723249,30.70365,1.7928929999999998Q30.77329,1.862537,30.82801,1.94443Q30.882730000000002,2.026322,30.92042,2.117317Q30.958109999999998,2.208311,30.97732,2.30491Q30.99654,2.4015086,30.99654,2.5Q30.99654,2.5984914,30.97732,2.69509Q30.958109999999998,2.791689,30.92042,2.882683Q30.882730000000002,2.973678,30.82801,3.05557Q30.77329,3.137463,30.70365,3.207107Q30.634,3.276751,30.55211,3.33147Q30.47022,3.3861879999999998,30.37922,3.423879Q30.28823,3.46157,30.19163,3.480785Q30.09503,3.5,29.99654,3.5L22.5,3.5L22.5,2.5L23.5,2.5L23.5,17.5L22.5,17.5L22.5,16.5L30,16.5Q30.098489999999998,16.5,30.19509,16.519199999999998Q30.29169,16.5384,30.38268,16.5761Q30.47368,16.613799999999998,30.55557,16.6685Q30.63746,16.7232,30.70711,16.7929Q30.77675,16.8625,30.83147,16.9444Q30.88619,17.0263,30.92388,17.1173Q30.961570000000002,17.2083,30.98078,17.3049Q31,17.4015,31,17.5Q31,17.5985,30.98078,17.6951Q30.961570000000002,17.7917,30.92388,17.8827Q30.88619,17.9737,30.83147,18.0556Q30.77675,18.1375,30.70711,18.2071Q30.63746,18.276699999999998,30.55557,18.3315Q30.47368,18.386200000000002,30.38268,18.4239Q30.29169,18.4616,30.19509,18.480800000000002Q30.098489999999998,18.5,30,18.5ZM31,17.5Q31,17.5985,30.98078,17.6951Q30.961570000000002,17.7917,30.92388,17.8827Q30.88619,17.9737,30.83147,18.0556Q30.77675,18.1375,30.70711,18.2071Q30.63746,18.276699999999998,30.55557,18.3315Q30.47368,18.386200000000002,30.38268,18.4239Q30.29169,18.4616,30.19509,18.480800000000002Q30.098489999999998,18.5,30,18.5Q29.901510000000002,18.5,29.80491,18.480800000000002Q29.70831,18.4616,29.61732,18.4239Q29.52632,18.386200000000002,29.44443,18.3315Q29.36254,18.276699999999998,29.29289,18.2071Q29.22325,18.1375,29.16853,18.0556Q29.11381,17.9737,29.07612,17.8827Q29.038429999999998,17.7917,29.01921,17.6951Q29,17.5985,29,17.5Q29,17.4015,29.01921,17.3049Q29.038429999999998,17.2083,29.07612,17.1173Q29.11381,17.0263,29.16853,16.9444Q29.22325,16.8625,29.29289,16.7929Q29.36254,16.7232,29.44443,16.6685Q29.52632,16.613799999999998,29.61732,16.5761Q29.70831,16.5384,29.80491,16.519199999999998Q29.901510000000002,16.5,30,16.5Q30.098489999999998,16.5,30.19509,16.519199999999998Q30.29169,16.5384,30.38268,16.5761Q30.47368,16.613799999999998,30.55557,16.6685Q30.63746,16.7232,30.70711,16.7929Q30.77675,16.8625,30.83147,16.9444Q30.88619,17.0263,30.92388,17.1173Q30.961570000000002,17.2083,30.98078,17.3049Q31,17.4015,31,17.5ZM30.99654,2.5Q30.99654,2.5984914,30.97732,2.69509Q30.958109999999998,2.791689,30.92042,2.882683Q30.882730000000002,2.973678,30.82801,3.05557Q30.77329,3.137463,30.70365,3.207107Q30.634,3.276751,30.55211,3.33147Q30.47022,3.3861879999999998,30.37922,3.423879Q30.28823,3.46157,30.19163,3.480785Q30.09503,3.5,29.99654,3.5Q29.898049999999998,3.5,29.80145,3.480785Q29.70485,3.46157,29.61386,3.423879Q29.52286,3.3861879999999998,29.44097,3.33147Q29.35908,3.276751,29.28943,3.207107Q29.21979,3.137463,29.16507,3.05557Q29.11035,2.973678,29.07266,2.882683Q29.03497,2.791689,29.01575,2.69509Q28.99654,2.5984914,28.99654,2.5Q28.99654,2.4015086,29.01576,2.30491Q29.03497,2.208311,29.07266,2.117317Q29.11035,2.026322,29.16507,1.94443Q29.21979,1.862537,29.28943,1.7928929999999998Q29.35908,1.723249,29.44097,1.66853Q29.52286,1.613812,29.61386,1.576121Q29.70485,1.53843,29.80145,1.519215Q29.898049999999998,1.5,29.99654,1.5Q30.09503,1.5,30.19163,1.519215Q30.28823,1.53843,30.37922,1.576121Q30.47022,1.613812,30.55211,1.66853Q30.634,1.723249,30.70365,1.7928929999999998Q30.77329,1.862537,30.82801,1.94443Q30.882730000000002,2.026322,30.92042,2.117317Q30.958109999999998,2.208311,30.97732,2.30491Q30.99654,2.4015086,30.99654,2.5Z"
        fill="#A9B8C7"
        fill-opacity="1"
      />
    </g>
    <g>
      <path
        d="M31.123125625,6.957107L27.373122625,10.70711L26.666015625,10L27.373122625,9.29289L31.123125625,13.04289Q31.192765625,13.11254,31.247485625,13.19443Q31.302205625,13.27632,31.339895625,13.36732Q31.377585625000002,13.45831,31.396795625,13.55491Q31.416015625,13.65151,31.416015625,13.75Q31.416015625,13.84849,31.396795625,13.94509Q31.377585625000002,14.04169,31.339895625,14.13268Q31.302205625,14.22368,31.247485625,14.30557Q31.192765625,14.38746,31.123125625,14.45711Q31.053475625,14.52675,30.971585625,14.58147Q30.889695625,14.63619,30.798695625,14.67388Q30.707705625,14.71157,30.611105625,14.73078Q30.514505624999998,14.75,30.416015625,14.75Q30.317525625000002,14.75,30.220925625,14.73078Q30.124325625,14.71157,30.033335625,14.67388Q29.942335625,14.63619,29.860445625,14.58147Q29.778555625,14.52675,29.708905625,14.45711L25.958908625,10.70711Q25.889264625,10.63746,25.834545625,10.55557Q25.779827625,10.47368,25.742136625,10.38268Q25.704445624999998,10.29169,25.685230625,10.19509Q25.666015625,10.09849,25.666015625,10Q25.666015625,9.90151,25.685230625,9.80491Q25.704445624999998,9.70831,25.742136625,9.61732Q25.779827625,9.52632,25.834545625,9.44443Q25.889264625,9.36254,25.958908625,9.29289L29.708905625,5.542893Q29.778555625,5.473249,29.860445625,5.41853Q29.942335625,5.363812,30.033335625,5.326121Q30.124325625,5.28843,30.220925625,5.269215Q30.317525625000002,5.25,30.416015625,5.25Q30.514505624999998,5.25,30.611105625,5.269215Q30.707705625,5.28843,30.798695625,5.326121Q30.889695625,5.363812,30.971585625,5.41853Q31.053475625,5.473249,31.123125625,5.542893Q31.192765625,5.612537,31.247485625,5.69443Q31.302205625,5.776322,31.339895625,5.867317Q31.377585625000002,5.958311,31.396795625,6.05491Q31.416015625,6.1515086,31.416015625,6.25Q31.416015625,6.3484914,31.396795625,6.44509Q31.377585625000002,6.541689,31.339895625,6.632683Q31.302205625,6.723678,31.247485625,6.80557Q31.192765625,6.887463,31.123125625,6.957107ZM31.416015625,6.25Q31.416015625,6.3484914,31.396795625,6.44509Q31.377585625000002,6.541689,31.339895625,6.632683Q31.302205625,6.723678,31.247485625,6.80557Q31.192765625,6.887463,31.123125625,6.957107Q31.053475625,7.026751,30.971585625,7.08147Q30.889695625,7.136188,30.798695625,7.173879Q30.707705625,7.21157,30.611105625,7.230785Q30.514505624999998,7.25,30.416015625,7.25Q30.317525625000002,7.25,30.220925625,7.230785Q30.124325625,7.21157,30.033335625,7.173879Q29.942335625,7.136188,29.860445625,7.08147Q29.778555625,7.026751,29.708905625,6.957107Q29.639265625,6.887463,29.584545625,6.80557Q29.529825625,6.723678,29.492135625,6.632683Q29.454445624999998,6.541689,29.435225625,6.44509Q29.416015625,6.3484914,29.416015625,6.25Q29.416015625,6.1515086,29.435225625,6.05491Q29.454445624999998,5.958311,29.492135625,5.867317Q29.529825625,5.776322,29.584545625,5.69443Q29.639265625,5.612537,29.708905625,5.542893Q29.778555625,5.473249,29.860445625,5.41853Q29.942335625,5.363812,30.033335625,5.326121Q30.124325625,5.28843,30.220925625,5.269215Q30.317525625000002,5.25,30.416015625,5.25Q30.514505624999998,5.25,30.611105625,5.269215Q30.707705625,5.28843,30.798695625,5.326121Q30.889695625,5.363812,30.971585625,5.41853Q31.053475625,5.473249,31.123125625,5.542893Q31.192765625,5.612537,31.247485625,5.69443Q31.302205625,5.776322,31.339895625,5.867317Q31.377585625000002,5.958311,31.396795625,6.05491Q31.416015625,6.1515086,31.416015625,6.25ZM31.416015625,13.75Q31.416015625,13.84849,31.396795625,13.94509Q31.377585625000002,14.04169,31.339895625,14.13268Q31.302205625,14.22368,31.247485625,14.30557Q31.192765625,14.38746,31.123125625,14.45711Q31.053475625,14.52675,30.971585625,14.58147Q30.889695625,14.63619,30.798695625,14.67388Q30.707705625,14.71157,30.611105625,14.73078Q30.514505624999998,14.75,30.416015625,14.75Q30.317525625000002,14.75,30.220925625,14.73078Q30.124325625,14.71157,30.033335625,14.67388Q29.942335625,14.63619,29.860445625,14.58147Q29.778555625,14.52675,29.708905625,14.45711Q29.639265625,14.38746,29.584545625,14.30557Q29.529825625,14.22368,29.492135625,14.13268Q29.454445624999998,14.04169,29.435225625,13.94509Q29.416015625,13.84849,29.416015625,13.75Q29.416015625,13.65151,29.435225625,13.55491Q29.454445624999998,13.45831,29.492135625,13.36732Q29.529825625,13.27632,29.584545625,13.19443Q29.639265625,13.11254,29.708905625,13.04289Q29.778555625,12.97325,29.860445625,12.91853Q29.942335625,12.86381,30.033335625,12.82612Q30.124325625,12.78843,30.220925625,12.769210000000001Q30.317525625000002,12.75,30.416015625,12.75Q30.514505624999998,12.75,30.611105625,12.769210000000001Q30.707705625,12.78843,30.798695625,12.82612Q30.889695625,12.86381,30.971585625,12.91853Q31.053475625,12.97325,31.123125625,13.04289Q31.192765625,13.11254,31.247485625,13.19443Q31.302205625,13.27632,31.339895625,13.36732Q31.377585625000002,13.45831,31.396795625,13.55491Q31.416015625,13.65151,31.416015625,13.75Z"
        fill="#A9B8C7"
        fill-opacity="1"
      />
    </g>
    <g>
      <path
        d="M26.666015625,8.996337890625L37.499315625,8.996337890625Q37.597815625,8.996337890625,37.694415625,9.015552890624999Q37.791015625,9.034767890625,37.882015625,9.072458890625Q37.973015625,9.110149890625,38.054915625,9.164867890625Q38.136815625,9.219586890625,38.206415625,9.289230890625Q38.276115625,9.358874890625,38.330815625,9.440767890625Q38.385515625,9.522659890625,38.423215625,9.613654890625Q38.460915625,9.704648890625,38.480115624999996,9.801247890625Q38.499315625,9.897846490625,38.499315625,9.996337890625Q38.499315625,10.094829290625,38.480115624999996,10.191427890625Q38.460915625,10.288026890625,38.423215625,10.379020890625Q38.385515625,10.470015890625,38.330815625,10.551907890625Q38.276115625,10.633800890625,38.206415625,10.703444890625Q38.136815625,10.773088890625,38.054915625,10.827807890625Q37.973015625,10.882525890625,37.882015625,10.920216890625Q37.791015625,10.957907890625,37.694415625,10.977122890625001Q37.597815625,10.996337890625,37.499315625,10.996337890625L26.666015625,10.996337890625Q26.567524225,10.996337890625,26.470925625,10.977122890625001Q26.374326625,10.957907890625,26.283332625,10.920216890625Q26.192337625,10.882525890625,26.110445625,10.827807890625Q26.028552625,10.773088890625,25.958908625,10.703444890625Q25.889264625,10.633800890625,25.834545625,10.551907890625Q25.779827625,10.470015890625,25.742136625,10.379020890625Q25.704445624999998,10.288026890625,25.685230625,10.191427890625Q25.666015625,10.094829290625,25.666015625,9.996337890625Q25.666015625,9.897846490625,25.685230625,9.801247890625Q25.704445624999998,9.704648890625,25.742136625,9.613654890625Q25.779827625,9.522659890625,25.834545625,9.440767890625Q25.889264625,9.358874890625,25.958908625,9.289230890625Q26.028552625,9.219586890625,26.110445625,9.164867890625Q26.192337625,9.110149890625,26.283332625,9.072458890625Q26.374326625,9.034767890625,26.470925625,9.015552890624999Q26.567524225,8.996337890625,26.666015625,8.996337890625ZM27.666015625,9.996337890625Q27.666015625,10.094829290625,27.646800625,10.191427890625Q27.627585625000002,10.288026890625,27.589894625,10.379020890625Q27.552203625,10.470015890625,27.497485625,10.551907890625Q27.442766625,10.633800890625,27.373122625,10.703444890625Q27.303478625,10.773088890625,27.221585625,10.827807890625Q27.139693625,10.882525890625,27.048698625,10.920216890625Q26.957704625,10.957907890625,26.861105625,10.977122890625001Q26.764507025,10.996337890625,26.666015625,10.996337890625Q26.567524225,10.996337890625,26.470925625,10.977122890625001Q26.374326625,10.957907890625,26.283332625,10.920216890625Q26.192337625,10.882525890625,26.110445625,10.827807890625Q26.028552625,10.773088890625,25.958908625,10.703444890625Q25.889264625,10.633800890625,25.834545625,10.551907890625Q25.779827625,10.470015890625,25.742136625,10.379020890625Q25.704445624999998,10.288026890625,25.685230625,10.191427890625Q25.666015625,10.094829290625,25.666015625,9.996337890625Q25.666015625,9.897846490625,25.685230625,9.801247890625Q25.704445624999998,9.704648890625,25.742136625,9.613654890625Q25.779827625,9.522659890625,25.834545625,9.440767890625Q25.889264625,9.358874890625,25.958908625,9.289230890625Q26.028552625,9.219586890625,26.110445625,9.164867890625Q26.192337625,9.110149890625,26.283332625,9.072458890625Q26.374326625,9.034767890625,26.470925625,9.015552890624999Q26.567524225,8.996337890625,26.666015625,8.996337890625Q26.764507025,8.996337890625,26.861105625,9.015552890624999Q26.957704625,9.034767890625,27.048698625,9.072458890625Q27.139693625,9.110149890625,27.221585625,9.164867890625Q27.303478625,9.219586890625,27.373122625,9.289230890625Q27.442766625,9.358874890625,27.497485625,9.440767890625Q27.552203625,9.522659890625,27.589894625,9.613654890625Q27.627585625000002,9.704648890625,27.646800625,9.801247890625Q27.666015625,9.897846490625,27.666015625,9.996337890625ZM38.499315625,9.996337890625Q38.499315625,10.094829290625,38.480115624999996,10.191427890625Q38.460915625,10.288026890625,38.423215625,10.379020890625Q38.385515625,10.470015890625,38.330815625,10.551907890625Q38.276115625,10.633800890625,38.206415625,10.703444890625Q38.136815625,10.773088890625,38.054915625,10.827807890625Q37.973015625,10.882525890625,37.882015625,10.920216890625Q37.791015625,10.957907890625,37.694415625,10.977122890625001Q37.597815625,10.996337890625,37.499315625,10.996337890625Q37.400815625,10.996337890625,37.304215625,10.977122890625001Q37.207615625,10.957907890625,37.116615625,10.920216890625Q37.025715625000004,10.882525890625,36.943815625,10.827807890625Q36.861915625,10.773088890625,36.792215625,10.703444890625Q36.722615625,10.633800890625,36.667915625,10.551907890625Q36.613155625,10.470015890625,36.575465625,10.379020890625Q36.537775625,10.288026890625,36.518565625,10.191427890625Q36.499345625000004,10.094829290625,36.499345625000004,9.996337890625Q36.499345625000004,9.897846490625,36.518565625,9.801247890625Q36.537775625,9.704648890625,36.575465625,9.613654890625Q36.613155625,9.522659890625,36.667915625,9.440767890625Q36.722615625,9.358874890625,36.792215625,9.289230890625Q36.861915625,9.219586890625,36.943815625,9.164867890625Q37.025715625000004,9.110149890625,37.116615625,9.072458890625Q37.207615625,9.034767890625,37.304215625,9.015552890624999Q37.400815625,8.996337890625,37.499315625,8.996337890625Q37.597815625,8.996337890625,37.694415625,9.015552890624999Q37.791015625,9.034767890625,37.882015625,9.072458890625Q37.973015625,9.110149890625,38.054915625,9.164867890625Q38.136815625,9.219586890625,38.206415625,9.289230890625Q38.276115625,9.358874890625,38.330815625,9.440767890625Q38.385515625,9.522659890625,38.423215625,9.613654890625Q38.460915625,9.704648890625,38.480115624999996,9.801247890625Q38.499315625,9.897846490625,38.499315625,9.996337890625Z"
        fill="#A9B8C7"
        fill-opacity="1"
      />
    </g>
  </g>
</svg>
