<svg xmlns="http://www.w3.org/2000/svg" xmlns:xlink="http://www.w3.org/1999/xlink" fill="none" version="1.1" width="12.66650390625" height="12.66650390625" viewBox="0 0 12.66650390625 12.66650390625"><g><g><path d="M5.33349609375,1L5.33349609375,11.6667Q5.33349609375,11.7652,5.35271109375,11.8618Q5.37192609375,11.9584,5.40961709375,12.0493Q5.44730809375,12.1403,5.50202609375,12.2222Q5.55674509375,12.3041,5.62638909375,12.3738Q5.69603309375,12.4434,5.77792609375,12.4981Q5.85981809375,12.5529,5.95081309375,12.5905Q6.04180709375,12.6282,6.13840609375,12.6475Q6.23500469375,12.6667,6.33349609375,12.6667Q6.43198749375,12.6667,6.52858609375,12.6475Q6.62518509375,12.6282,6.71617909375,12.5905Q6.80717409375,12.5529,6.88906609375,12.4981Q6.97095909375,12.4434,7.04060309375,12.3738Q7.11024709375,12.3041,7.16496609375,12.2222Q7.21968409375,12.1403,7.25737509375,12.0493Q7.29506609375,11.9584,7.31428109375,11.8618Q7.33349609375,11.7652,7.33349609375,11.6667L7.33349609375,1Q7.33349609375,0.9015086,7.31428109375,0.80491Q7.29506609375,0.708311,7.25737509375,0.617317Q7.21968409375,0.526322,7.16496609375,0.44443Q7.11024709375,0.362537,7.04060309375,0.29289299999999996Q6.97095909375,0.22324900000000003,6.88906609375,0.16852999999999996Q6.80717409375,0.11381200000000002,6.71617909375,0.076121Q6.62518509375,0.038429999999999964,6.52858609375,0.019214999999999982Q6.43198749375,0,6.33349609375,0Q6.23500469375,0,6.13840609375,0.019214999999999982Q6.04180709375,0.038429999999999964,5.95081309375,0.076121Q5.85981809375,0.11381200000000002,5.77792609375,0.16852999999999996Q5.69603309375,0.22324900000000003,5.62638909375,0.29289299999999996Q5.55674509375,0.362537,5.50202609375,0.44443Q5.44730809375,0.526322,5.40961709375,0.617317Q5.37192609375,0.708311,5.35271109375,0.80491Q5.33349609375,0.9015086,5.33349609375,1Z" fill-rule="evenodd" fill="#1A8BFE" fill-opacity="1"/></g><g><path d="M1,7.33349609375L11.6667,7.33349609375Q11.7652,7.33349609375,11.8618,7.31428109375Q11.9584,7.29506609375,12.0493,7.25737509375Q12.1403,7.21968409375,12.2222,7.16496609375Q12.3041,7.11024709375,12.3738,7.04060309375Q12.4434,6.97095909375,12.4981,6.88906609375Q12.5529,6.80717409375,12.5905,6.71617909375Q12.6282,6.62518509375,12.6475,6.52858609375Q12.6667,6.43198749375,12.6667,6.33349609375Q12.6667,6.23500469375,12.6475,6.13840609375Q12.6282,6.04180709375,12.5905,5.95081309375Q12.5529,5.85981809375,12.4981,5.77792609375Q12.4434,5.69603309375,12.3738,5.62638909375Q12.3041,5.55674509375,12.2222,5.50202609375Q12.1403,5.44730809375,12.0493,5.40961709375Q11.9584,5.37192609375,11.8618,5.35271109375Q11.7652,5.33349609375,11.6667,5.33349609375L1,5.33349609375Q0.9015086,5.33349609375,0.80491,5.35271109375Q0.708311,5.37192609375,0.617317,5.40961709375Q0.526322,5.44730809375,0.44443,5.50202609375Q0.362537,5.55674509375,0.29289299999999996,5.62638909375Q0.22324900000000003,5.69603309375,0.16852999999999996,5.77792609375Q0.11381200000000002,5.85981809375,0.076121,5.95081309375Q0.038429999999999964,6.04180709375,0.019214999999999982,6.13840609375Q0,6.23500469375,0,6.33349609375Q0,6.43198749375,0.019214999999999982,6.52858609375Q0.038429999999999964,6.62518509375,0.076121,6.71617909375Q0.11381200000000002,6.80717409375,0.16852999999999996,6.88906609375Q0.22324900000000003,6.97095909375,0.29289299999999996,7.04060309375Q0.362537,7.11024709375,0.44443,7.16496609375Q0.526322,7.21968409375,0.617317,7.25737509375Q0.708311,7.29506609375,0.80491,7.31428109375Q0.9015086,7.33349609375,1,7.33349609375Z" fill-rule="evenodd" fill="#1A8BFE" fill-opacity="1"/></g></g></svg>