<svg xmlns="http://www.w3.org/2000/svg" xmlns:xlink="http://www.w3.org/1999/xlink" fill="none" version="1.1" width="17.999998092651367" height="18" viewBox="0 0 17.999998092651367 18"><defs><clipPath id="master_svg0_89_04143"><rect x="0" y="0" width="17.999998092651367" height="18" rx="0"/></clipPath></defs><g clip-path="url(#master_svg0_89_04143)"><g><rect x="0" y="0" width="18" height="18" rx="0" fill="#FFFFFF" fill-opacity="0.009999999776482582"/></g><g><path d="M1.5,13.5L1.5,4.5Q1.5,3.2573600000000003,2.37868,2.37868Q3.2573600000000003,1.5,4.5,1.5L13.5,1.5Q14.7426,1.5,15.6213,2.37868Q16.5,3.2573600000000003,16.5,4.5L16.5,13.5Q16.5,14.7426,15.6213,15.6213Q14.7426,16.5,13.5,16.5L4.5,16.5Q3.2573600000000003,16.5,2.37868,15.6213Q1.5,14.7426,1.5,13.5ZM3,13.5Q3,14.1213,3.43934,14.5607Q3.87868,15,4.5,15L13.5,15Q14.1213,15,14.5607,14.5607Q15,14.1213,15,13.5L15,4.5Q15,3.87868,14.5607,3.43934Q14.1213,3,13.5,3L4.5,3Q3.87868,3,3.43934,3.43934Q3,3.87868,3,4.5L3,13.5Z" fill="#A9B8C7" fill-opacity="1"/></g><g><path d="M5.251953125,6.7490234375L12.751953125,6.7490234375Q12.825823125,6.7490234375,12.898273125,6.7634344375Q12.970713125,6.7778454375,13.038963125,6.8061134375Q13.107213125000001,6.8343824375,13.168633125,6.8754214375Q13.230043125,6.9164604375,13.282283125,6.9686934375Q13.334513125,7.0209264375,13.375553125,7.0823454375Q13.416593125,7.1437654375,13.444863125,7.2120104375Q13.473123125,7.2802564375,13.487543125,7.3527054375Q13.501953125,7.4251549375,13.501953125,7.4990234375Q13.501953125,7.5728919375,13.487543125,7.6453414375Q13.473123125,7.7177904375,13.444863125,7.7860364375Q13.416593125,7.8542814375,13.375553125,7.9157014375Q13.334513125,7.9771204375,13.282283125,8.0293534375Q13.230043125,8.0815864375,13.168633125,8.1226254375Q13.107213125000001,8.1636644375,13.038963125,8.1919334375Q12.970713125,8.2202014375,12.898273125,8.234612437500001Q12.825823125,8.2490234375,12.751953125,8.2490234375L5.251953125,8.2490234375Q5.178084625,8.2490234375,5.105635125,8.234612437500001Q5.033186125,8.2202014375,4.964940125,8.1919334375Q4.896695125,8.1636644375,4.835275125,8.1226254375Q4.773856125,8.0815864375,4.721623125,8.0293534375Q4.669390125,7.9771204375,4.628351125,7.9157014375Q4.587312125,7.8542814375,4.559043125,7.7860364375Q4.530775125,7.7177904375,4.516364125,7.6453414375Q4.501953125,7.5728919375,4.501953125,7.4990234375Q4.501953125,7.4251549375,4.516364125,7.3527054375Q4.530775125,7.2802564375,4.559043125,7.2120104375Q4.587312125,7.1437654375,4.628351125,7.0823454375Q4.669390125,7.0209264375,4.721623125,6.9686934375Q4.773856125,6.9164604375,4.835275125,6.8754214375Q4.896695125,6.8343824375,4.964940125,6.8061134375Q5.033186125,6.7778454375,5.105635125,6.7634344375Q5.178084625,6.7490234375,5.251953125,6.7490234375ZM6.001953125,7.4990234375Q6.001953125,7.5728919375,5.987542125,7.6453414375Q5.973131125,7.7177904375,5.944863125,7.7860364375Q5.916594125,7.8542814375,5.875555125,7.9157014375Q5.834516125,7.9771204375,5.782283125,8.0293534375Q5.730050125,8.0815864375,5.668631125,8.1226254375Q5.607211125,8.1636644375,5.538966125,8.1919334375Q5.470720125,8.2202014375,5.398271125,8.234612437500001Q5.325821625,8.2490234375,5.251953125,8.2490234375Q5.178084625,8.2490234375,5.105635125,8.234612437500001Q5.033186125,8.2202014375,4.964940125,8.1919334375Q4.896695125,8.1636644375,4.835275125,8.1226254375Q4.773856125,8.0815864375,4.721623125,8.0293534375Q4.669390125,7.9771204375,4.628351125,7.9157014375Q4.587312125,7.8542814375,4.559043125,7.7860364375Q4.530775125,7.7177904375,4.516364125,7.6453414375Q4.501953125,7.5728919375,4.501953125,7.4990234375Q4.501953125,7.4251549375,4.516364125,7.3527054375Q4.530775125,7.2802564375,4.559043125,7.2120104375Q4.587312125,7.1437654375,4.628351125,7.0823454375Q4.669390125,7.0209264375,4.721623125,6.9686934375Q4.773856125,6.9164604375,4.835275125,6.8754214375Q4.896695125,6.8343824375,4.964940125,6.8061134375Q5.033186125,6.7778454375,5.105635125,6.7634344375Q5.178084625,6.7490234375,5.251953125,6.7490234375Q5.325821625,6.7490234375,5.398271125,6.7634344375Q5.470720125,6.7778454375,5.538966125,6.8061134375Q5.607211125,6.8343824375,5.668631125,6.8754214375Q5.730050125,6.9164604375,5.782283125,6.9686934375Q5.834516125,7.0209264375,5.875555125,7.0823454375Q5.916594125,7.1437654375,5.944863125,7.2120104375Q5.973131125,7.2802564375,5.987542125,7.3527054375Q6.001953125,7.4251549375,6.001953125,7.4990234375ZM13.501953125,7.4990234375Q13.501953125,7.5728919375,13.487543125,7.6453414375Q13.473123125,7.7177904375,13.444863125,7.7860364375Q13.416593125,7.8542814375,13.375553125,7.9157014375Q13.334513125,7.9771204375,13.282283125,8.0293534375Q13.230043125,8.0815864375,13.168633125,8.1226254375Q13.107213125000001,8.1636644375,13.038963125,8.1919334375Q12.970713125,8.2202014375,12.898273125,8.234612437500001Q12.825823125,8.2490234375,12.751953125,8.2490234375Q12.678083125,8.2490234375,12.605633125,8.234612437500001Q12.533183125,8.2202014375,12.464933125,8.1919334375Q12.396693124999999,8.1636644375,12.335273125,8.1226254375Q12.273853124999999,8.0815864375,12.221623125,8.0293534375Q12.169383125,7.9771204375,12.128353125,7.9157014375Q12.087313125,7.8542814375,12.059043124999999,7.7860364375Q12.030773125,7.7177904375,12.016363125,7.6453414375Q12.001953125,7.5728919375,12.001953125,7.4990234375Q12.001953125,7.4251549375,12.016363125,7.3527054375Q12.030773125,7.2802564375,12.059043124999999,7.2120104375Q12.087313125,7.1437654375,12.128343125,7.0823454375Q12.169383125,7.0209264375,12.221623125,6.9686934375Q12.273853124999999,6.9164604375,12.335273125,6.8754214375Q12.396693124999999,6.8343824375,12.464933125,6.8061134375Q12.533183125,6.7778454375,12.605633125,6.7634344375Q12.678083125,6.7490234375,12.751953125,6.7490234375Q12.825823125,6.7490234375,12.898273125,6.7634344375Q12.970713125,6.7778454375,13.038963125,6.8061134375Q13.107213125000001,6.8343824375,13.168633125,6.8754214375Q13.230043125,6.9164604375,13.282283125,6.9686934375Q13.334513125,7.0209264375,13.375553125,7.0823454375Q13.416593125,7.1437654375,13.444863125,7.2120104375Q13.473123125,7.2802564375,13.487543125,7.3527054375Q13.501953125,7.4251549375,13.501953125,7.4990234375Z" fill="#A9B8C7" fill-opacity="1"/></g><g><path d="M5.251953125,9.375L9.751953125,9.375Q9.825823125,9.375,9.898273125,9.389410999999999Q9.970723125,9.403822,10.038963125,9.43209Q10.107213125000001,9.460359,10.168633125,9.501398Q10.230053125000001,9.542437,10.282283125,9.59467Q10.334513125,9.646903,10.375553125,9.708322Q10.416593125,9.769742,10.444863125000001,9.837987Q10.473133125,9.906233,10.487543125,9.978682Q10.501953125,10.0511315,10.501953125,10.125Q10.501953125,10.1988685,10.487543125,10.271318Q10.473133125,10.343767,10.444863125000001,10.412013Q10.416593125,10.480258,10.375553125,10.541678Q10.334513125,10.603097,10.282283125,10.65533Q10.230053125000001,10.707563,10.168633125,10.748602Q10.107213125000001,10.789641,10.038963125,10.81791Q9.970723125,10.846178,9.898273125,10.860589000000001Q9.825823125,10.875,9.751953125,10.875L5.251953125,10.875Q5.178084625,10.875,5.105635125,10.860589000000001Q5.033186125,10.846178,4.964940125,10.81791Q4.896695125,10.789641,4.835275125,10.748602Q4.773856125,10.707563,4.721623125,10.65533Q4.669390125,10.603097,4.628351125,10.541678Q4.587312125,10.480258,4.559043125,10.412013Q4.530775125,10.343767,4.516364125,10.271318Q4.501953125,10.1988685,4.501953125,10.125Q4.501953125,10.0511315,4.516364125,9.978682Q4.530775125,9.906233,4.559043125,9.837987Q4.587312125,9.769742,4.628351125,9.708322Q4.669390125,9.646903,4.721623125,9.59467Q4.773856125,9.542437,4.835275125,9.501398Q4.896695125,9.460359,4.964940125,9.43209Q5.033186125,9.403822,5.105635125,9.389410999999999Q5.178084625,9.375,5.251953125,9.375ZM6.001953125,10.125Q6.001953125,10.1988685,5.987542125,10.271318Q5.973131125,10.343767,5.944863125,10.412013Q5.916594125,10.480258,5.875555125,10.541678Q5.834516125,10.603097,5.782283125,10.65533Q5.730050125,10.707563,5.668631125,10.748602Q5.607211125,10.789641,5.538966125,10.81791Q5.470720125,10.846178,5.398271125,10.860589000000001Q5.325821625,10.875,5.251953125,10.875Q5.178084625,10.875,5.105635125,10.860589000000001Q5.033186125,10.846178,4.964940125,10.81791Q4.896695125,10.789641,4.835275125,10.748602Q4.773856125,10.707563,4.721623125,10.65533Q4.669390125,10.603097,4.628351125,10.541678Q4.587312125,10.480258,4.559043125,10.412013Q4.530775125,10.343767,4.516364125,10.271318Q4.501953125,10.1988685,4.501953125,10.125Q4.501953125,10.0511315,4.516364125,9.978682Q4.530775125,9.906233,4.559043125,9.837987Q4.587312125,9.769742,4.628351125,9.708322Q4.669390125,9.646903,4.721623125,9.59467Q4.773856125,9.542437,4.835275125,9.501398Q4.896695125,9.460359,4.964940125,9.43209Q5.033186125,9.403822,5.105635125,9.389410999999999Q5.178084625,9.375,5.251953125,9.375Q5.325821625,9.375,5.398271125,9.389410999999999Q5.470720125,9.403822,5.538966125,9.43209Q5.607211125,9.460359,5.668631125,9.501398Q5.730050125,9.542437,5.782283125,9.59467Q5.834516125,9.646903,5.875555125,9.708322Q5.916594125,9.769742,5.944863125,9.837987Q5.973131125,9.906233,5.987542125,9.978682Q6.001953125,10.0511315,6.001953125,10.125ZM10.501953125,10.125Q10.501953125,10.1988685,10.487543125,10.271318Q10.473133125,10.343767,10.444863125000001,10.412013Q10.416593125,10.480258,10.375553125,10.541678Q10.334513125,10.603097,10.282283125,10.65533Q10.230053125000001,10.707563,10.168633125,10.748602Q10.107213125000001,10.789641,10.038963125,10.81791Q9.970723125,10.846178,9.898273125,10.860589000000001Q9.825823125,10.875,9.751953125,10.875Q9.678083125,10.875,9.605633125,10.860589000000001Q9.533183125,10.846178,9.464943125,10.81791Q9.396693124999999,10.789641,9.335273125,10.748602Q9.273853124999999,10.707563,9.221623125,10.65533Q9.169393125,10.603097,9.128353125,10.541678Q9.087313125,10.480258,9.059043125,10.412013Q9.030773125,10.343767,9.016363125,10.271318Q9.001953125,10.1988685,9.001953125,10.125Q9.001953125,10.0511315,9.016363125,9.978682Q9.030773125,9.906233,9.059043125,9.837987Q9.087313125,9.769742,9.128353125,9.708322Q9.169393125,9.646903,9.221623125,9.59467Q9.273853124999999,9.542437,9.335273125,9.501398Q9.396693124999999,9.460359,9.464943125,9.43209Q9.533183125,9.403822,9.605633125,9.389410999999999Q9.678083125,9.375,9.751953125,9.375Q9.825823125,9.375,9.898273125,9.389410999999999Q9.970723125,9.403822,10.038963125,9.43209Q10.107213125000001,9.460359,10.168633125,9.501398Q10.230053125000001,9.542437,10.282283125,9.59467Q10.334513125,9.646903,10.375553125,9.708322Q10.416593125,9.769742,10.444863125000001,9.837987Q10.473133125,9.906233,10.487543125,9.978682Q10.501953125,10.0511315,10.501953125,10.125Z" fill="#A9B8C7" fill-opacity="1"/></g></g></svg>