;<svg
  xmlns="http://www.w3.org/2000/svg"
  xmlns:xlink="http://www.w3.org/1999/xlink"
  fill="none"
  version="1.1"
  width="24"
  height="24"
  viewBox="0 0 24 24"
>
  <defs>
    <clipPath id="master_svg0_89_24482">
      <rect x="0" y="0" width="24" height="24" rx="0" />
    </clipPath>
  </defs>
  <g clip-path="url(#master_svg0_89_24482)">
    <g>
      <rect x="0" y="0" width="24" height="24" rx="0" fill="#FFFFFF" fill-opacity="0.009999999776482582" />
    </g>
    <g>
      <path
        d="M13,22L13,14Q13,13.9015086,13.019214999999999,13.80491Q13.03843,13.708311,13.076121,13.617317Q13.113812,13.526322,13.16853,13.44443Q13.223249,13.362537,13.292893,13.292893Q13.362537,13.223249,13.44443,13.16853Q13.526322,13.113812,13.617317,13.076121Q13.708311,13.03843,13.80491,13.019214999999999Q13.9015086,13,14,13L22,13Q22.098489999999998,13,22.19509,13.019214999999999Q22.29169,13.03843,22.38268,13.076121Q22.47368,13.113812,22.55557,13.16853Q22.63746,13.223249,22.70711,13.292893Q22.77675,13.362537,22.83147,13.44443Q22.88619,13.526322,22.92388,13.617317Q22.961570000000002,13.708311,22.98078,13.80491Q23,13.9015086,23,14L23,22Q23,22.098489999999998,22.98078,22.19509Q22.961570000000002,22.29169,22.92388,22.38268Q22.88619,22.47368,22.83147,22.55557Q22.77675,22.63746,22.70711,22.70711Q22.63746,22.77675,22.55557,22.83147Q22.47368,22.88619,22.38268,22.92388Q22.29169,22.961570000000002,22.19509,22.98078Q22.098489999999998,23,22,23L14,23Q13.9015086,23,13.80491,22.98078Q13.708311,22.961570000000002,13.617317,22.92388Q13.526322,22.88619,13.44443,22.83147Q13.362537,22.77675,13.292893,22.70711Q13.223249,22.63746,13.16853,22.55557Q13.113812,22.47368,13.076121,22.38268Q13.03843,22.29169,13.019214999999999,22.19509Q13,22.098489999999998,13,22ZM15,15L15,21L21,21L21,15L15,15Z"
        fill="#1A8BFE"
        fill-opacity="1"
      />
    </g>
    <g>
      <path
        d="M1.1284239999999999,9.50974L5.62842,1.509739Q5.67671,1.423896,5.740819999999999,1.349123Q5.80492,1.27435,5.8823799999999995,1.21352Q5.959849999999999,1.15269,6.04769,1.108141Q6.13553,1.0635919999999999,6.23037,1.037036Q6.32521,1.01048,6.42342,1.002937Q6.52162,0.99539,6.6194,1.0071539999999999Q6.71719,1.018915,6.8108,1.049526Q6.90442,1.080138,6.99026,1.1284239999999999Q7.2343,1.265698,7.37158,1.509739L11.87158,9.50974Q11.91986,9.59558,11.95047,9.68919Q11.98108,9.78281,11.99284,9.88059Q12.0046,9.97838,11.99706,10.07658Q11.98952,10.17479,11.96296,10.26963Q11.93641,10.36447,11.89186,10.45231Q11.84731,10.54015,11.78648,10.61761Q11.72565,10.69508,11.65088,10.75918Q11.5761,10.82329,11.49026,10.87158Q11.26195,11,11,11L2,11Q1.9015086,11,1.80491,10.98078Q1.7083110000000001,10.96157,1.617317,10.92388Q1.526322,10.88619,1.44443,10.83147Q1.362537,10.77675,1.2928929999999998,10.70711Q1.223249,10.63746,1.16853,10.55557Q1.113812,10.47368,1.076121,10.38268Q1.03843,10.29169,1.019215,10.19509Q1,10.09849,1,10Q1,9.738050000000001,1.1284239999999999,9.50974ZM2.871576,10.49026L2,10L2,9L11,9L11,10L10.12842,10.49026L5.62842,2.490261L6.5,2L7.37158,2.490261L2.871576,10.49026Z"
        fill="#1A8BFE"
        fill-opacity="1"
      />
    </g>
    <g>
      <path
        d="M15,6Q15,7.24265,15.87868,8.12132Q16.75735,9,18,9Q19.24265,9,20.12132,8.12132Q21,7.24265,21,6Q21,4.75736,20.12132,3.87868Q19.24265,3,18,3Q16.75735,3,15.87868,3.87868Q15,4.75736,15,6ZM13,6Q13,3.9289300000000003,14.464461,2.464466Q15.92892,1,18,1Q20.071080000000002,1,21.53554,2.464466Q23,3.9289300000000003,23,6Q23,8.07108,21.53554,9.535540000000001Q20.071080000000002,11,18,11Q15.92892,11,14.464462,9.535540000000001Q13,8.07108,13,6Z"
        fill="#1A8BFE"
        fill-opacity="1"
      />
    </g>
    <g>
      <path
        d="M9.29289,22.70711L1.2928929999999998,14.707107Q1.223249,14.637463,1.16853,14.55557Q1.113812,14.473678,1.076121,14.382683Q1.03843,14.291689,1.019215,14.19509Q1,14.0984914,1,14Q1,13.9015086,1.019215,13.80491Q1.03843,13.708311,1.076121,13.617317Q1.113812,13.526322,1.16853,13.44443Q1.223249,13.362537,1.2928929999999998,13.292893Q1.362537,13.223249,1.44443,13.16853Q1.526322,13.113812,1.617317,13.076121Q1.7083110000000001,13.03843,1.80491,13.019214999999999Q1.9015086,13,2,13Q2.0984914,13,2.19509,13.019214999999999Q2.291689,13.03843,2.382683,13.076121Q2.473678,13.113812,2.55557,13.16853Q2.637463,13.223249,2.707107,13.292893L10.70711,21.29289Q10.77675,21.36254,10.83147,21.44443Q10.88619,21.52632,10.92388,21.61732Q10.96157,21.70831,10.98078,21.80491Q11,21.901510000000002,11,22Q11,22.098489999999998,10.98078,22.19509Q10.96157,22.29169,10.92388,22.38268Q10.88619,22.47368,10.83147,22.55557Q10.77675,22.63746,10.70711,22.70711Q10.63746,22.77675,10.55557,22.83147Q10.47368,22.88619,10.38268,22.92388Q10.29169,22.961570000000002,10.19509,22.98078Q10.09849,23,10,23Q9.90151,23,9.80491,22.98078Q9.70831,22.961570000000002,9.61732,22.92388Q9.52632,22.88619,9.44443,22.83147Q9.36254,22.77675,9.29289,22.70711ZM11,22Q11,22.098489999999998,10.98078,22.19509Q10.96157,22.29169,10.92388,22.38268Q10.88619,22.47368,10.83147,22.55557Q10.77675,22.63746,10.70711,22.70711Q10.63746,22.77675,10.55557,22.83147Q10.47368,22.88619,10.38268,22.92388Q10.29169,22.961570000000002,10.19509,22.98078Q10.09849,23,10,23Q9.90151,23,9.80491,22.98078Q9.70831,22.961570000000002,9.61732,22.92388Q9.52632,22.88619,9.44443,22.83147Q9.36254,22.77675,9.29289,22.70711Q9.22325,22.63746,9.16853,22.55557Q9.11381,22.47368,9.07612,22.38268Q9.03843,22.29169,9.019210000000001,22.19509Q9,22.098489999999998,9,22Q9,21.901510000000002,9.019210000000001,21.80491Q9.03843,21.70831,9.07612,21.61732Q9.11381,21.52632,9.16853,21.44443Q9.22325,21.36254,9.29289,21.29289Q9.36254,21.22325,9.44443,21.16853Q9.52632,21.11381,9.61732,21.07612Q9.70831,21.038429999999998,9.80491,21.01921Q9.90151,21,10,21Q10.09849,21,10.19509,21.01922Q10.29169,21.038429999999998,10.38268,21.07612Q10.47368,21.11381,10.55557,21.16853Q10.63746,21.22325,10.70711,21.29289Q10.77675,21.36254,10.83147,21.44443Q10.88619,21.52632,10.92388,21.61732Q10.96157,21.70831,10.98078,21.80491Q11,21.901510000000002,11,22ZM3,14Q3,14.0984914,2.980785,14.19509Q2.96157,14.291689,2.923879,14.382683Q2.8861879999999998,14.473678,2.83147,14.55557Q2.776751,14.637463,2.707107,14.707107Q2.637463,14.776751,2.55557,14.83147Q2.473678,14.886188,2.382683,14.923879Q2.291689,14.96157,2.19509,14.980785000000001Q2.0984914,15,2,15Q1.9015086,15,1.80491,14.980785000000001Q1.7083110000000001,14.96157,1.617317,14.923879Q1.526322,14.886188,1.44443,14.83147Q1.362537,14.776751,1.2928929999999998,14.707107Q1.223249,14.637463,1.16853,14.55557Q1.113812,14.473678,1.076121,14.382683Q1.03843,14.291689,1.019215,14.19509Q1,14.0984914,1,14Q1,13.9015086,1.019215,13.80491Q1.03843,13.708311,1.076121,13.617317Q1.113812,13.526322,1.16853,13.44443Q1.223249,13.362537,1.2928929999999998,13.292893Q1.362537,13.223249,1.44443,13.16853Q1.526322,13.113812,1.617317,13.076121Q1.7083110000000001,13.03843,1.80491,13.019214999999999Q1.9015086,13,2,13Q2.0984914,13,2.19509,13.019214999999999Q2.291689,13.03843,2.382683,13.076121Q2.473678,13.113812,2.55557,13.16853Q2.637463,13.223249,2.707107,13.292893Q2.776751,13.362537,2.83147,13.44443Q2.8861879999999998,13.526322,2.923879,13.617317Q2.96157,13.708311,2.980785,13.80491Q3,13.9015086,3,14Z"
        fill="#1A8BFE"
        fill-opacity="1"
      />
    </g>
    <g>
      <path
        d="M1.2928929999999998,21.29289L9.29289,13.292893Q9.36254,13.223249,9.44443,13.16853Q9.52632,13.113812,9.61732,13.076121Q9.70831,13.03843,9.80491,13.019214999999999Q9.90151,13,10,13Q10.09849,13,10.19509,13.019214999999999Q10.29169,13.03843,10.38268,13.076121Q10.47368,13.113812,10.55557,13.16853Q10.63746,13.223249,10.70711,13.292893Q10.77675,13.362537,10.83147,13.44443Q10.88619,13.526322,10.92388,13.617317Q10.96157,13.708311,10.98078,13.80491Q11,13.9015086,11,14Q11,14.0984914,10.98078,14.19509Q10.96157,14.291689,10.92388,14.382683Q10.88619,14.473678,10.83147,14.55557Q10.77675,14.637463,10.70711,14.707107L2.707107,22.70711Q2.637463,22.77675,2.55557,22.83147Q2.473678,22.88619,2.382683,22.92388Q2.291689,22.961570000000002,2.19509,22.98078Q2.0984914,23,2,23Q1.9015086,23,1.80491,22.98078Q1.7083110000000001,22.961570000000002,1.617317,22.92388Q1.526322,22.88619,1.44443,22.83147Q1.362537,22.77675,1.2928929999999998,22.70711Q1.223249,22.63746,1.16853,22.55557Q1.113812,22.47368,1.076121,22.38268Q1.03843,22.29169,1.019215,22.19509Q1,22.098489999999998,1,22Q1,21.901510000000002,1.019215,21.80491Q1.03843,21.70831,1.076121,21.61732Q1.113812,21.52632,1.16853,21.44443Q1.223249,21.36254,1.2928929999999998,21.29289ZM3,22Q3,22.098489999999998,2.980785,22.19509Q2.96157,22.29169,2.923879,22.38268Q2.8861879999999998,22.47368,2.83147,22.55557Q2.776751,22.63746,2.707107,22.70711Q2.637463,22.77675,2.55557,22.83147Q2.473678,22.88619,2.382683,22.92388Q2.291689,22.961570000000002,2.19509,22.98078Q2.0984914,23,2,23Q1.9015086,23,1.80491,22.98078Q1.7083110000000001,22.961570000000002,1.617317,22.92388Q1.526322,22.88619,1.44443,22.83147Q1.362537,22.77675,1.2928929999999998,22.70711Q1.223249,22.63746,1.16853,22.55557Q1.113812,22.47368,1.076121,22.38268Q1.03843,22.29169,1.019215,22.19509Q1,22.098489999999998,1,22Q1,21.901510000000002,1.019215,21.80491Q1.03843,21.70831,1.076121,21.61732Q1.113812,21.52632,1.16853,21.44443Q1.223249,21.36254,1.2928929999999998,21.29289Q1.362537,21.22325,1.44443,21.16853Q1.526322,21.11381,1.617317,21.07612Q1.7083110000000001,21.038429999999998,1.80491,21.01921Q1.9015086,21,2,21Q2.0984914,21,2.19509,21.01922Q2.291689,21.038429999999998,2.382683,21.07612Q2.473678,21.11381,2.55557,21.16853Q2.637463,21.22325,2.707107,21.29289Q2.776751,21.36254,2.83147,21.44443Q2.8861879999999998,21.52632,2.923879,21.61732Q2.96157,21.70831,2.980785,21.80491Q3,21.901510000000002,3,22ZM11,14Q11,14.0984914,10.98078,14.19509Q10.96157,14.291689,10.92388,14.382683Q10.88619,14.473678,10.83147,14.55557Q10.77675,14.637463,10.70711,14.707107Q10.63746,14.776751,10.55557,14.83147Q10.47368,14.886188,10.38268,14.923879Q10.29169,14.96157,10.19509,14.980785000000001Q10.09849,15,10,15Q9.90151,15,9.80491,14.980785000000001Q9.70831,14.96157,9.61732,14.923879Q9.52632,14.886188,9.44443,14.83147Q9.36254,14.776751,9.29289,14.707107Q9.22325,14.637463,9.16853,14.55557Q9.11381,14.473678,9.07612,14.382683Q9.03843,14.291689,9.019210000000001,14.19509Q9,14.0984914,9,14Q9,13.9015086,9.019210000000001,13.80491Q9.03843,13.708311,9.07612,13.617317Q9.11381,13.526322,9.16853,13.44443Q9.22325,13.362537,9.29289,13.292893Q9.36254,13.223249,9.44443,13.16853Q9.52632,13.113812,9.61732,13.076121Q9.70831,13.03843,9.80491,13.019214999999999Q9.90151,13,10,13Q10.09849,13,10.19509,13.019214999999999Q10.29169,13.03843,10.38268,13.076121Q10.47368,13.113812,10.55557,13.16853Q10.63746,13.223249,10.70711,13.292893Q10.77675,13.362537,10.83147,13.44443Q10.88619,13.526322,10.92388,13.617317Q10.96157,13.708311,10.98078,13.80491Q11,13.9015086,11,14Z"
        fill="#1A8BFE"
        fill-opacity="1"
      />
    </g>
  </g>
</svg>
