<svg
  xmlns="http://www.w3.org/2000/svg"
  xmlns:xlink="http://www.w3.org/1999/xlink"
  fill="none"
  version="1.1"
  width="24"
  height="24"
  viewBox="0 0 24 24"
>
  <defs>
    <clipPath id="master_svg0_1100_8028">
      <rect x="0" y="0" width="24" height="24" rx="0" />
    </clipPath>
  </defs>
  <g clip-path="url(#master_svg0_1100_8028)">
    <g>
      <path
        d="M4.860491035095215,6.926251027755738L4.860205035095214,6.926661027755737Q4.771967035095215,7.052721027755737,4.725709035095215,7.199471027755737Q4.679450035095215,7.346231027755737,4.679450035095215,7.500101027755737Q4.679450035095215,7.535731027755737,4.681986035095215,7.571271027755737Q4.689927035095215,7.682561027755737,4.722198035095214,7.789351027755737Q4.754469035095215,7.896151027755737,4.809484035095215,7.993211027755737Q4.864499035095215,8.090271027755737,4.939552035095215,8.172821027755738Q5.014606035095214,8.255371027755738,5.106006035095215,8.319341027755737Q5.232066035095215,8.407581027755738,5.378821035095215,8.453841027755736Q5.525577035095215,8.500101027755736,5.679450035095215,8.500101027755736L5.684295185095215,8.500091027755737Q5.769423735095215,8.499671027755738,5.853257035095215,8.484881027755737Q6.0491420350952145,8.450311027755738,6.216886035095214,8.343401027755737Q6.384630035095215,8.236501027755736,6.498695035095215,8.073541027755738L8.827040035095216,4.747171027755737L8.827060035095215,4.747171027755737L17.123850035095217,8.414721027755737Q17.316950035095214,8.500101027755736,17.528150035095216,8.500101027755736Q17.558650035095216,8.500101027755736,17.589050035095212,8.498241027755737Q17.726350035095216,8.489861027755737,17.856350035095215,8.444711027755737Q17.986250035095217,8.399571027755737,18.099150035095214,8.321021027755737Q18.212150035095213,8.242471027755737,18.299650035095215,8.136341027755737Q18.387150035095218,8.030221027755736,18.442750035095216,7.904401027755737Q18.528150035095216,7.711271027755737,18.528150035095216,7.500101027755737L18.528150035095216,7.498761027755737Q18.527850035095213,7.312741027755737,18.460750035095217,7.139251027755737Q18.388950035095213,6.953741027755737,18.251650035095217,6.809821027755737Q18.114350035095214,6.665901027755737,17.932450035095215,6.585481027755737L9.635640035095214,2.917909027755737Q8.980150035095214,2.6281710277557373,8.289830035095214,2.8206610277557376Q7.599470035095215,3.0131640277557374,7.188560035095215,3.600281027755737L4.860491035095215,6.926251027755738Z"
        fill-rule="evenodd"
        fill="#1A8BFE"
        fill-opacity="1"
      />
    </g>
    <g>
      <path
        d="M23,20L23,8Q23,7.378675,22.5607,6.939337Q22.1213,6.5,21.5,6.5L2.5,6.5Q1.878684,6.5,1.439346,6.939332Q1,7.378671,1,8L1,20Q1,20.621299999999998,1.4393449999999999,21.0607Q1.878684,21.5,2.5,21.5L21.5,21.5Q22.1213,21.5,22.5607,21.0607Q23,20.621299999999998,23,20ZM21,8.5L21,19.5L3,19.5L3,8.5L21,8.5Z"
        fill-rule="evenodd"
        fill="#1A8BFE"
        fill-opacity="1"
      />
    </g>
    <g>
      <path
        d="M12.94938,16.93983L15.39808,11.939827Q15.5,11.731723,15.5,11.50000290891L15.499929999999999,11.4881497Q15.49803,11.327735,15.44604,11.175965Q15.38159,10.987784,15.250029999999999,10.838594Q15.11847,10.689404,14.93983,10.601917Q14.73172,10.5,14.5,10.5Q14.4891,10.5,14.47821,10.500238Q14.340679999999999,10.503235,14.20907,10.543254Q14.07747,10.583273,13.961549999999999,10.65734Q13.84564,10.731408,13.75403,10.834021Q13.662420000000001,10.936635,13.60192,11.060173L12.03295,14.263860000000001L10.390742,11.04549Q10.327909,10.922352,10.234026,10.820878Q10.140142,10.719405,10.02225,10.647208Q9.904358,10.575011,9.7713,10.537505Q9.638242,10.5,9.5,10.5L9.499062522,10.5Q9.259171,10.500225,9.04549,10.609258Q8.922352,10.672091,8.820878,10.765974Q8.719405,10.859858,8.647208,10.97775Q8.575011,11.095642,8.537505,11.2287Q8.5,11.361758,8.5,11.5L8.5,11.500937478Q8.500225,11.740829,8.609258,11.95451L11.16056,16.95451Q11.23432,17.09907,11.35002,17.21289Q11.46572,17.3267,11.61147,17.39808Q11.79011,17.48557,11.98863,17.49803Q12.18716,17.5105,12.37534,17.44604Q12.56352,17.38159,12.71271,17.25003Q12.8619,17.118470000000002,12.94938,16.93983Z"
        fill-rule="evenodd"
        fill="#1A8BFE"
        fill-opacity="1"
      />
    </g>
  </g>
</svg>
