<svg xmlns="http://www.w3.org/2000/svg" xmlns:xlink="http://www.w3.org/1999/xlink" fill="none" version="1.1" width="99.3740234375" height="106.59423828125" viewBox="0 0 99.3740234375 106.59423828125"><g><g><g><path d="M0,19.594223022460938L8,19.594223022460938L8,15.594223022460938L3,15.594223022460938L0,19.594223022460938Z" fill="#AA0B0B" fill-opacity="1"/></g><g transform="matrix(0,-1,-1,0,189.59422302246094,189.59422302246094)"><path d="M83,110.59422302246094L91,110.59422302246094L91,106.59422302246094L86,106.59422302246094L83,110.59422302246094Z" fill="#AA0B0B" fill-opacity="1"/></g><g transform="matrix(0.6619330644607544,0.7495629787445068,-0.7495629787445068,0.6619330644607544,6.984185567707755,-15.48535626498051)"><path d="M20.6591796875,23.5586L139.5761796875,21.8433L114.8398796875,0.000488281L41.1786796875,0.322021L20.6591796875,23.5586Z" fill="#F41B1B" fill-opacity="1"/></g></g><g transform="matrix(0.6619330644607544,0.7495629787445068,-0.7495629787445068,0.6619330644607544,28.962744045856198,-20.60549387381002)"><path d="M46.574649810791016,35.46489131164551L49.57924981079101,35.46489131164551L49.57924981079101,36.73869131164551L42.012799810791016,36.73869131164551L42.012799810791016,35.46489131164551L45.28818981079102,35.46489131164551L45.28818981079102,32.86659131164551L42.66448981079102,32.86659131164551L42.66448981079102,31.592811311645505L45.28818981079102,31.592811311645505L45.28818981079102,29.32881131164551L43.794379810791014,29.32881131164551Q43.50660981079102,30.40792131164551,43.15537981079102,31.35583131164551L41.97470981079101,30.95381131164551Q42.300559810791015,30.10746131164551,42.54599981079102,29.227251311645507L42.076279810791014,29.773151311645506Q41.699649810791016,29.252641311645508,41.06487981079101,28.469761311645506L41.06487981079101,37.195691311645504L39.82920981079101,37.195691311645504L39.82920981079101,25.558311311645507L41.06487981079101,25.613321311645507L41.06487981079101,27.898481311645508L41.62347981079102,27.403361311645508Q42.27093981079101,28.186241311645507,42.68987981079101,28.719441311645507Q43.015729810791015,27.432981311645506,43.16806981079102,26.273481311645508L44.365659810791016,26.430051311645506Q44.22177981079101,27.432981311645506,44.107529810791014,28.004271311645507L45.28818981079102,28.004271311645507L45.28818981079102,25.596391311645508L46.574649810791016,25.651401311645508L46.574649810791016,28.004271311645507L49.24064981079101,28.004271311645507L49.24064981079101,29.32881131164551L46.574649810791016,29.32881131164551L46.574649810791016,31.592811311645505L48.95294981079101,31.592811311645505L48.95294981079101,32.86659131164551L46.574649810791016,32.86659131164551L46.574649810791016,35.46489131164551ZM37.84027381079102,32.24029131164551Q38.034934810791015,31.330441311645508,38.25921881079102,30.01859131164551Q38.487729810791016,28.70674131164551,38.61891981079101,27.627641311645508L39.72340981079102,27.78422131164551Q39.60914981079102,28.719441311645507,39.359479810791015,30.213251311645507Q39.11403981079101,31.707071311645507,38.944769810791016,32.48999131164551L37.84027381079102,32.24029131164551ZM58.58864981079101,25.36364131164551Q59.20224981079102,26.844761311645506,60.28134981079101,28.080441311645508Q61.36044981079101,29.316121311645507,62.69764981079102,30.082071311645507L61.982549810791014,31.292361311645507Q60.60294981079102,30.395221311645507,59.64234981079102,29.32458131164551Q58.68174981079102,28.24971131164551,58.080849810791015,26.819371311645508Q57.509549810791015,28.186241311645507,56.66314981079101,29.23995131164551Q55.82104981079102,30.289431311645508,54.41614981079101,31.41085131164551L53.65014981079102,30.23864131164551Q56.472749810791015,28.173541311645508,57.52224981079102,25.36364131164551L58.58864981079101,25.36364131164551ZM54.623449810791016,25.922241311645507Q54.20874981079102,27.221391311645508,53.557049810791014,28.575561311645508L53.557049810791014,37.22109131164551L52.338349810791016,37.22109131164551L52.338349810791016,30.835321311645508Q51.83054981079101,31.66898131164551,51.271949810791014,32.43489131164551L50.438249810791014,31.292361311645507Q51.36074981079101,30.031291311645507,52.16054981079102,28.503621311645507Q52.960349810791016,26.97595131164551,53.40474981079102,25.532911311645506L54.623449810791016,25.922241311645507ZM60.255949810791016,37.20839131164551L59.020249810791015,37.20839131164551L59.020249810791015,30.23864131164551L60.255949810791016,30.289431311645508L60.255949810791016,37.20839131164551ZM55.770249810791015,30.276731311645506L56.989049810791016,30.33174131164551L56.989049810791016,32.020191311645505Q56.989049810791016,33.425191311645506,56.819749810791016,34.24609131164551Q56.65474981079102,35.06289131164551,56.22304981079101,35.72729131164551Q55.79564981079102,36.38739131164551,54.885849810791015,37.335291311645506L53.870249810791016,36.467791311645506Q54.716549810791015,35.68489131164551,55.105849810791014,35.122091311645505Q55.495249810791016,34.55509131164551,55.63064981079101,33.88219131164551Q55.770249810791015,33.2050913116455,55.770249810791015,32.04559131164551L55.770249810791015,30.276731311645506ZM75.01214981079102,33.67059131164551Q75.01214981079102,34.37309131164551,74.90634981079101,35.20679131164551Q74.83014981079101,35.82879131164551,74.61434981079103,36.18429131164551Q74.39854981079102,36.543991311645506,73.98804981079101,36.70479131164551Q73.58184981079101,36.86979131164551,72.87934981079101,36.90789131164551Q72.28264981079101,36.933291311645505,71.96954981079102,36.933291311645505Q71.66904981079102,36.933291311645505,71.07234981079102,36.90789131164551Q70.18794981079103,36.86979131164551,69.81134981079101,36.493191311645504Q69.43464981079102,36.11659131164551,69.43464981079102,35.13899131164551L69.43464981079102,25.63871131164551L70.77194981079101,25.689491311645508L70.77194981079101,30.187861311645506Q71.60554981079102,29.56156131164551,72.51964981079101,28.770221311645507Q73.43794981079103,27.97888131164551,73.98384981079101,27.403361311645508L74.86824981079101,28.457071311645507Q74.076949810791,29.252641311645508,72.90474981079102,30.23018131164551Q71.73674981079103,31.203491311645507,70.77194981079101,31.87629131164551L70.77194981079101,34.68619131164551Q70.77194981079101,35.06289131164551,70.83114981079102,35.232091311645505Q70.89044981079101,35.40139131164551,71.046949810791,35.47339131164551Q71.20354981079102,35.54529131164551,71.56744981079102,35.570691311645504Q71.74944981079102,35.58339131164551,72.11334981079102,35.58339131164551Q72.49004981079102,35.58339131164551,72.671949810791,35.570691311645504Q73.07394981079102,35.54529131164551,73.25594981079101,35.48609131164551Q73.43794981079103,35.42679131164551,73.52674981079102,35.25329131164551Q73.61984981079101,35.07559131164551,73.65794981079102,34.69889131164551Q73.75104981079102,33.87799131164551,73.75104981079102,33.243191311645504L75.01214981079102,33.67059131164551ZM66.09154981079101,35.12629131164551L68.93954981079102,33.97109131164551L69.04534981079101,35.37599131164551L68.55024981079102,35.58339131164551Q67.15794981079102,36.12929131164551,66.05344981079102,36.62439131164551Q65.70224981079102,36.77669131164551,64.96164981079102,37.11529131164551L64.39044981079101,35.803391311645505Q64.64854981079101,35.69759131164551,64.70774981079101,35.570691311645504Q64.76704981079101,35.43949131164551,64.76704981079101,35.13899131164551L64.76704981079101,25.76566131164551L66.09154981079101,25.820681311645508L66.09154981079101,29.265341311645507L68.96494981079101,29.265341311645507L68.96494981079101,30.577191311645507L66.09154981079101,30.577191311645507L66.09154981079101,35.12629131164551ZM77.93634981079101,25.871461311645508L86.19244981079102,25.871461311645508L86.19244981079102,29.680051311645506L77.93634981079101,29.680051311645506L77.93634981079101,25.871461311645508ZM85.02454981079102,27.37797131164551L85.02454981079102,26.819371311645508L79.10854981079102,26.819371311645508L79.10854981079102,27.37797131164551L85.02454981079102,27.37797131164551ZM79.10854981079102,28.211631311645508L79.10854981079102,28.78292131164551L85.02454981079102,28.78292131164551L85.02454981079102,28.211631311645508L79.10854981079102,28.211631311645508ZM76.28594981079101,30.23864131164551L87.83014981079101,30.23864131164551L87.83014981079101,31.173871311645506L81.83794981079102,31.173871311645506L81.83794981079102,34.918991311645506L82.54044981079102,34.80049131164551L82.59124981079101,35.841491311645505Q82.34584981079101,35.89229131164551,81.83794981079102,35.94729131164551L81.83794981079102,37.271891311645504L80.70814981079101,37.271891311645504L80.70814981079101,36.10389131164551Q80.47114981079102,36.12929131164551,79.98024981079101,36.20549131164551Q77.10684981079102,36.582091311645506,76.46784981079102,36.68789131164551L76.37904981079102,35.672191311645506L76.80644981079101,35.62149131164551Q77.33964981079102,35.54529131164551,77.49614981079102,35.52839131164551L77.49614981079102,31.173871311645506L76.28594981079101,31.173871311645506L76.28594981079101,30.23864131164551ZM78.63874981079101,31.95679131164551L80.70814981079101,31.95679131164551L80.70814981079101,31.173871311645506L78.63874981079101,31.173871311645506L78.63874981079101,31.95679131164551ZM86.89494981079102,32.90469131164551Q86.29824981079102,34.15299131164551,85.55774981079102,35.02479131164551Q86.38714981079102,35.59609131164551,87.77944981079102,36.14199131164551L87.25884981079102,37.32259131164551Q85.60854981079102,36.569391311645504,84.73674981079103,35.85419131164551Q83.80154981079102,36.66249131164551,82.60394981079102,37.271891311645504L82.03264981079101,36.26049131164551Q83.09904981079102,35.803391311645505,83.94544981079102,35.10099131164551Q83.162549810791,34.216491311645505,82.646249810791,32.85389131164551L82.32044981079102,32.85389131164551L82.32044981079102,31.838291311645506L86.89494981079102,31.838291311645506L86.89494981079102,32.90469131164551ZM83.81424981079101,32.85389131164551Q84.14004981079101,33.683291311645505,84.72404981079102,34.309591311645505Q85.23184981079102,33.69599131164551,85.63384981079102,32.85389131164551L83.81424981079101,32.85389131164551ZM78.63874981079101,33.607091311645505L80.70814981079101,33.607091311645505L80.70814981079101,32.87929131164551L78.63874981079101,32.87929131164551L78.63874981079101,33.607091311645505ZM78.63874981079101,34.47889131164551L78.63874981079101,35.37599131164551L80.70814981079101,35.088291311645506L80.70814981079101,34.47889131164551L78.63874981079101,34.47889131164551ZM100.45774981079101,26.561241311645507L100.45774981079101,27.602251311645507L89.146249810791,27.602251311645507L89.146249810791,26.561241311645507L94.16514981079101,26.561241311645507Q94.05934981079102,26.15922131164551,93.89004981079101,25.689491311645508L95.19344981079101,25.469441311645507Q95.34584981079101,25.871461311645508,95.55734981079101,26.561241311645507L100.45774981079101,26.561241311645507ZM90.94054981079103,30.903031311645506L90.94054981079103,28.28780131164551L98.676249810791,28.28780131164551L98.676249810791,30.903031311645506L90.94054981079103,30.903031311645506ZM92.20164981079103,29.980511311645508L97.38974981079102,29.980511311645508L97.38974981079102,29.19763131164551L92.20164981079103,29.19763131164551L92.20164981079103,29.980511311645508ZM89.92494981079102,37.271891311645504L89.92494981079102,31.605511311645508L99.70454981079101,31.605511311645508L99.70454981079101,35.710291311645506Q99.70454981079101,36.243491311645506,99.56484981079102,36.531291311645504Q99.42944981079101,36.81909131164551,99.10364981079101,36.95869131164551Q98.77774981079102,37.10259131164551,98.15574981079101,37.18299131164551L97.45324981079102,37.271891311645504L97.06394981079102,36.14199131164551L97.69864981079101,36.06159131164551Q98.03724981079102,36.02349131164551,98.18534981079102,35.96849131164551Q98.33764981079102,35.90919131164551,98.37994981079102,35.786491311645506Q98.42654981079102,35.65959131164551,98.42654981079102,35.38869131164551L98.42654981079102,32.57879131164551L91.17324981079102,32.57879131164551L91.17324981079102,37.271891311645504L89.92494981079102,37.271891311645504ZM92.23964981079101,33.255891311645506L97.36434981079103,33.255891311645506L97.36434981079103,35.98539131164551L92.23964981079101,35.98539131164551L92.23964981079101,33.255891311645506ZM93.47534981079102,35.02479131164551L96.14134981079101,35.02479131164551L96.14134981079101,34.22919131164551L93.47534981079102,34.22919131164551L93.47534981079102,35.02479131164551Z" fill="#FFFFFF" fill-opacity="1"/></g></g></svg>