<svg xmlns="http://www.w3.org/2000/svg" xmlns:xlink="http://www.w3.org/1999/xlink" fill="none" version="1.1" width="23.999998092651367" height="23.999998092651367" viewBox="0 0 23.999998092651367 23.999998092651367"><defs><clipPath id="master_svg0_987_01341"><rect x="0" y="0" width="23.999998092651367" height="23.999998092651367" rx="0"/></clipPath></defs><g clip-path="url(#master_svg0_987_01341)"><g><path d="M10.3758,15.7350640625C10.0911,15.7376640625,9.82595,15.5906640625,9.6773,15.3478640625L9.62426,15.2387640625L5.43854,9.708184062499999C5.41334,9.658864062500001,5.39965,9.6044640625,5.39851,9.5490840625C5.40505,9.334314062499999,5.58398,9.1652240625,5.79877,9.170834062499999C5.88883,9.170834062499999,5.97189,9.1988540625,6.03893,9.2458840625L10.6199,11.9806640625C10.9401,12.1762640625,11.3308,12.2187640625,11.6856,12.0967640625L21.8162,5.9957640625C19.6408,3.5741940625,16.0605,1.9931640625,12.0078,1.9931640625C5.3755,1.9931640625,0,6.2259240625,0,11.4453140625C0,14.2931640625,1.61705,16.8568640625,4.1487,18.5889640625C4.35615,18.7254640625,4.48217,18.9560640625,4.48492,19.2043640625C4.48245,19.2866640625,4.4683,19.3681640625,4.44289,19.4465640625L3.90154,21.3517640625C3.87552,21.4418640625,3.8365,21.5348640625,3.8365,21.6279640625C3.8365,21.8380640625,4.01661,22.0061640625,4.23676,22.0061640625C4.32281,22.0061640625,4.39386,21.9761640625,4.46691,21.9361640625L7.09662,20.5031640625C7.29475,20.3951640625,7.50288,20.3280640625,7.73403,20.3280640625C7.85711,20.3280640625,7.97419,20.3460640625,8.08726,20.3771640625C9.31306,20.7103640625,10.6369,20.8964640625,12.0068,20.8964640625C18.6391,20.8954640625,24.0156,16.6626640625,24.0156,11.4453140625C24.0156,9.8632840625,23.5183,8.3743140625,22.6467,7.0654640625L10.823,15.6060640625L10.736,15.6530640625C10.6237,15.7073640625,10.5005,15.7353640625,10.3758,15.7350640625Z" fill="#15BA11" fill-opacity="1"/></g></g></svg>